<svg xmlns="http://www.w3.org/2000/svg" xmlns:xlink="http://www.w3.org/1999/xlink" width="20" height="20" version="1.1" viewBox="0 0 20 20"><title>icon-support</title><g id="landing" fill="none" fill-rule="evenodd" stroke="none" stroke-width="1" opacity=".65"><g id="continuum-home" fill="#405ADD" fill-rule="nonzero" transform="translate(-1096.000000, -5134.000000)"><g id="Group-13" transform="translate(529.000000, 5119.000000)"><g id="Group-32" transform="translate(537.000000, 0.000000)"><path id="icon-support" d="M40,35 C45.5228629,35 50,30.5228629 50,25 C50,19.4771371 45.5228629,15 40,15 C34.4771371,15 30,19.4771371 30,25 C30,30.5228629 34.4771371,35 40,35 Z M35.8307258,31.9064516 L37.9843952,29.7527823 C39.2668952,30.297379 40.7314919,30.2980242 42.0156048,29.7527823 L44.1692742,31.9064516 C41.6202016,33.4515726 38.3797984,33.4515726 35.8307258,31.9064516 Z M43.2258065,25 C43.2258065,26.7787097 41.7787097,28.2258065 40,28.2258065 C38.2212903,28.2258065 36.7741935,26.7787097 36.7741935,25 C36.7741935,23.2212903 38.2212903,21.7741935 40,21.7741935 C41.7787097,21.7741935 43.2258065,23.2212903 43.2258065,25 Z M46.9064516,29.1692742 L44.7527823,27.0156048 C45.2973387,25.7331048 45.2980242,24.2685081 44.7527823,22.9843952 L46.9064516,20.8307258 C48.4515726,23.3797984 48.4515726,26.6202016 46.9064516,29.1692742 Z M44.1692339,18.0935484 L42.0155645,20.2472177 C40.7330645,19.7026613 39.2684677,19.7019758 37.9843952,20.2472177 L35.8307258,18.0935484 C38.3797984,16.5484274 41.6202016,16.5484274 44.1692339,18.0935484 Z M33.0935484,20.8307258 L35.2472177,22.9843952 C34.702621,24.2668952 34.7019758,25.7314919 35.2472177,27.0156048 L33.0935484,29.1692742 C31.5484274,26.6202016 31.5484274,23.3797984 33.0935484,20.8307258 Z"/></g></g></g></g></svg>