<?xml version="1.0" encoding="UTF-8"?>
<svg width="20px" height="20px" viewBox="0 0 20 20" version="1.1" xmlns="http://www.w3.org/2000/svg" xmlns:xlink="http://www.w3.org/1999/xlink">
    <title>icon-reminder</title>
    <g id="landing" stroke="none" stroke-width="1" fill="none" fill-rule="evenodd" opacity="0.65">
        <g id="continuum-home" transform="translate(-860.000000, -5134.000000)" fill="#405ADD" fill-rule="nonzero">
            <g id="Group-13" transform="translate(529.000000, 5119.000000)">
                <g id="Group-32" transform="translate(301.000000, 0.000000)">
                    <path d="M40,17.4998897 C35.1664062,17.4998897 31.25,21.4172951 31.25,26.2495038 C31.2491201,28.1376922 31.8626906,29.9748947 32.9980469,31.4836479 L31.4316406,33.0495945 C31.3143995,33.1668036 31.2485319,33.3257894 31.2485319,33.4915672 C31.2485319,33.6573449 31.3143995,33.8163307 31.4316406,33.9335398 L32.315625,34.8170946 C32.5596695,35.0609685 32.9551742,35.0609685 33.1992187,34.8170946 L34.765625,33.2499762 C37.8652384,35.5829679 42.1347616,35.5829679 45.234375,33.2499762 L46.8007812,34.8159228 C46.9179956,34.9331587 47.0769884,34.9990234 47.2427734,34.9990234 C47.4085585,34.9990234 47.5675513,34.9331587 47.6847656,34.8159228 L48.5683594,33.932368 C48.6856005,33.8151589 48.7514681,33.656173 48.7514681,33.4903953 C48.7514681,33.3246176 48.6856005,33.1656318 48.5683594,33.0484226 L47.0003906,31.4836479 C48.1362794,29.9750777 48.7504012,28.1378664 48.75,26.2495038 C48.75,21.4172951 44.8320312,17.4998897 40,17.4998897 Z M40,33.1242005 C36.2030423,33.1242005 33.125,30.046294 33.125,26.2495038 C33.125,22.4527136 36.2030423,19.374807 40,19.374807 C43.7969577,19.374807 46.875,22.4527136 46.875,26.2495038 C46.875,28.0727867 46.1506717,29.8213928 44.8613591,31.1106485 C43.5720465,32.3999042 41.8233634,33.1242005 40,33.1242005 Z M33.75,15 C31.6789322,15 30,16.6788581 30,18.7498346 C30.0028882,19.4607822 30.2103668,20.1558728 30.5976562,20.75209 L36.296875,16.0030808 C35.6054202,15.3585281 34.6953013,15.0000799 33.75,15 Z M40.9375,26.4241055 L40.9375,21.5622105 C40.9375,21.3896292 40.797589,21.2497243 40.625,21.2497243 L39.375,21.2497243 C39.202411,21.2497243 39.0624998,21.3896292 39.0624998,21.5622105 L39.0624998,26.7244828 C39.0622626,27.1042986 39.2347433,27.4636175 39.53125,27.7010023 L42.0523437,29.7153665 C42.1179262,29.7651697 42.1995497,29.7890856 42.2816406,29.7825511 C42.3638035,29.7732994 42.4389512,29.7318647 42.490625,29.6673218 L43.271875,28.6908024 C43.3239603,28.6260236 43.3480898,28.5431638 43.3389264,28.4605505 C43.329763,28.3779372 43.2880619,28.3023786 43.2230469,28.2505874 L40.9375,26.4241055 Z M46.25,15 C45.3050968,15.0001821 44.395347,15.3583157 43.7039063,16.0022995 L49.4027344,20.7509182 C49.7895898,20.1549564 49.9969155,19.4603309 50,18.7498346 C50,16.6788581 48.3210678,15 46.25,15 L46.25,15 Z" id="icon-reminder"></path>
                </g>
            </g>
        </g>
    </g>
</svg>