<?xml version="1.0" encoding="UTF-8"?>
<svg width="20px" height="20px" viewBox="0 0 20 20" version="1.1" xmlns="http://www.w3.org/2000/svg" xmlns:xlink="http://www.w3.org/1999/xlink">
    <title>icon-uploads</title>
    <g id="landing" stroke="none" stroke-width="1" fill="none" fill-rule="evenodd" opacity="0.65">
        <g id="continuum-home" transform="translate(-789.000000, -5064.000000)" fill="#405ADD" fill-rule="nonzero">
            <g id="Group-11" transform="translate(461.000000, 5049.000000)">
                <g id="Group-32" transform="translate(298.000000, 0.000000)">
                    <path d="M49.4465056,18.8273438 L46.1696779,15.5507812 C45.8181288,15.1992188 45.3415846,15 44.8459004,15 L36.8751118,15 C35.8403858,15.0039062 35.0005742,15.84375 35.0005742,16.8785156 L35.0005742,20 L36.8751118,20 L36.8751118,16.8785156 L43.1237007,16.8785156 L43.1237007,20.9402344 C43.1237007,21.4597656 43.5416535,21.8773438 44.0611648,21.8773438 L48.1250718,21.8773438 L48.1250718,33.1253906 L38.7504306,33.1253906 L38.7504306,35 L48.1223375,35 C49.1574541,35 50,34.1601562 50,33.1253906 L50,20.1550781 C50,19.659375 49.7980546,19.1789063 49.4465056,18.8273438 Z M44.9982383,20.0027344 L44.9982383,17.0308594 L47.9703902,20.0027344 L44.9982383,20.0027344 L44.9982383,20.0027344 Z M39.6652393,28.2140625 C39.9542908,27.9199219 40.0671771,27.4914063 39.9613218,27.0894531 C39.7492205,26.2828125 39.7488299,26.3964844 39.9613218,25.5886719 C40.0671771,25.1867187 39.9542908,24.7582031 39.6652393,24.4640625 C39.0847928,23.8734375 39.1406501,23.9714844 38.9281582,23.1644531 C38.8223029,22.7625 38.5141115,22.4488281 38.1192048,22.3414062 C37.3270476,22.1253906 37.4223565,22.18125 36.8423005,21.5910156 C36.5532491,21.296875 36.1321715,21.1820312 35.7372647,21.2898437 C34.9435451,21.50625 35.0552596,21.5058594 34.2627118,21.2898437 C33.8681956,21.1820312 33.447118,21.2972656 33.1580666,21.5910156 C32.575667,22.1839844 32.669804,22.1261719 31.8811623,22.3414062 C31.4862556,22.4492187 31.1780642,22.7628906 31.0722089,23.1644531 C30.8589358,23.9746094 30.9159649,23.8726562 30.3351277,24.4640625 C30.0460763,24.7582031 29.93319,25.1867187 30.0390453,25.5886719 C30.2519278,26.3976562 30.250756,26.2835937 30.0390453,27.0894531 C29.93319,27.4914063 30.0460763,27.9199219 30.3351277,28.2140625 C30.9151837,28.8042969 30.859717,28.7066406 31.0722089,29.5136719 C31.1780642,29.915625 31.4862556,30.2292969 31.8811623,30.3367187 C32.4401253,30.4890625 32.3311451,30.4527344 32.4998886,30.5320312 L32.4998886,35 L34.9997929,33.75 L37.4996972,35 L37.4996972,30.5320312 C37.6680502,30.453125 37.55907,30.4890625 38.1184236,30.3367187 C38.5133303,30.2289063 38.8215216,29.9152344 38.927377,29.5136719 C39.1414313,28.703125 39.0844022,28.8050781 39.6652393,28.2140625 Z M35.0005742,28.75 C33.6201582,28.75 32.5006698,27.6308594 32.5006698,26.25 C32.5006698,24.8691406 33.6201582,23.75 35.0005742,23.75 C36.3809901,23.75 37.5004785,24.8691406 37.5004785,26.25 C37.5004785,27.6308594 36.3809901,28.75 35.0005742,28.75 Z" id="icon-uploads"></path>
                </g>
            </g>
        </g>
    </g>
</svg>