<?xml version="1.0" encoding="UTF-8"?>
<svg width="26px" height="20px" viewBox="0 0 26 20" version="1.1" xmlns="http://www.w3.org/2000/svg" xmlns:xlink="http://www.w3.org/1999/xlink">
    <title>icon-dashboard</title>
    <g id="landing" stroke="none" stroke-width="1" fill="none" fill-rule="evenodd" opacity="0.65">
        <g id="continuum-home" transform="translate(-491.000000, -5063.000000)" fill="#405ADD" fill-rule="nonzero">
            <g id="Group-32" transform="translate(461.000000, 5049.000000)">
                <path d="M47.200625,21.1995536 L43.7809028,25.5477679 C43.5308333,25.478125 43.2721875,25.4285714 43,25.4285714 C41.4043403,25.4285714 40.1111111,26.7075893 40.1111111,28.2857143 C40.1111111,28.8089286 40.2636806,29.2924107 40.5119444,29.7142857 L45.4885069,29.7142857 C45.7367708,29.2924107 45.8893403,28.8089286 45.8893403,28.2857143 C45.8893403,27.7647321 45.7376736,27.2830357 45.4916667,26.8625 L48.9109375,22.5147321 C49.2792708,22.0473214 49.1930556,21.3741071 48.7218056,21.0116071 C48.2446875,20.6477679 47.56625,20.7334821 47.200625,21.1995536 Z M43,14 C35.8202083,14 30,19.75625 30,26.8571429 C30,29.2142857 30.6432292,31.4223214 31.763125,33.3214286 C32.0163542,33.7508929 32.4988889,34 33.0017361,34 L52.9982639,34 C53.5011111,34 53.9836458,33.7508929 54.236875,33.3214286 C55.3567708,31.4223214 56,29.2142857 56,26.8571429 C56,19.75625 50.1797917,14 43,14 Z M52.5816319,31.8571429 L33.4183681,31.8571429 C32.5981944,30.3227679 32.1666667,28.6035714 32.1666667,26.8571429 C32.1666667,20.9491071 37.0263194,16.1428571 43,16.1428571 C48.9736806,16.1428571 53.8333333,20.9491071 53.8333333,26.8571429 C53.8333333,28.6035714 53.4018056,30.3227679 52.5816319,31.8571429 Z" id="icon-dashboard"></path>
            </g>
        </g>
    </g>
</svg>