<?xml version="1.0" encoding="UTF-8"?>
<svg width="26px" height="20px" viewBox="0 0 26 20" version="1.1" xmlns="http://www.w3.org/2000/svg" xmlns:xlink="http://www.w3.org/1999/xlink">
    <title>icon-profileshare</title>
    <g id="landing" stroke="none" stroke-width="1" fill="none" fill-rule="evenodd" opacity="0.65">
        <g id="continuum-home" transform="translate(-559.000000, -5134.000000)" fill="#405ADD" fill-rule="nonzero">
            <g id="Group-32" transform="translate(529.000000, 5119.000000)">
                <path d="M53.8333333,15 L32.1666667,15 C30.9704861,15 30,15.9598214 30,17.1428571 L30,32.8571429 C30,34.0401786 30.9704861,35 32.1666667,35 L53.8333333,35 C55.0295139,35 56,34.0401786 56,32.8571429 L56,17.1428571 C56,15.9598214 55.0295139,15 53.8333333,15 Z M53.8333333,32.8571429 L43.6861111,32.8571429 C43.7267361,32.65625 43.7222222,33.0178571 43.7222222,31.8571429 C43.7222222,30.4375 42.3635417,29.2857143 40.6888889,29.2857143 C40.2013889,29.2857143 39.8447917,29.6428571 38.6666667,29.6428571 C37.4524306,29.6428571 37.1590278,29.2857143 36.6444444,29.2857143 C34.9697917,29.2857143 33.6111111,30.4375 33.6111111,31.8571429 C33.6111111,33.0178571 33.6020833,32.65625 33.6472222,32.8571429 L32.1666667,32.8571429 L32.1666667,20 L53.8333333,20 L53.8333333,32.8571429 Z M46.25,29.2857143 L51.3055556,29.2857143 C51.5041667,29.2857143 51.6666667,29.125 51.6666667,28.9285714 L51.6666667,28.2142857 C51.6666667,28.0178571 51.5041667,27.8571429 51.3055556,27.8571429 L46.25,27.8571429 C46.0513889,27.8571429 45.8888889,28.0178571 45.8888889,28.2142857 L45.8888889,28.9285714 C45.8888889,29.125 46.0513889,29.2857143 46.25,29.2857143 Z M46.25,26.4285714 L51.3055556,26.4285714 C51.5041667,26.4285714 51.6666667,26.2678571 51.6666667,26.0714286 L51.6666667,25.3571429 C51.6666667,25.1607143 51.5041667,25 51.3055556,25 L46.25,25 C46.0513889,25 45.8888889,25.1607143 45.8888889,25.3571429 L45.8888889,26.0714286 C45.8888889,26.2678571 46.0513889,26.4285714 46.25,26.4285714 Z M46.25,23.5714286 L51.3055556,23.5714286 C51.5041667,23.5714286 51.6666667,23.4107143 51.6666667,23.2142857 L51.6666667,22.5 C51.6666667,22.3035714 51.5041667,22.1428571 51.3055556,22.1428571 L46.25,22.1428571 C46.0513889,22.1428571 45.8888889,22.3035714 45.8888889,22.5 L45.8888889,23.2142857 C45.8888889,23.4107143 46.0513889,23.5714286 46.25,23.5714286 Z M38.6666667,27.8571429 C40.2600694,27.8571429 41.5555556,26.5758929 41.5555556,25 C41.5555556,23.4241071 40.2600694,22.1428571 38.6666667,22.1428571 C37.0732639,22.1428571 35.7777778,23.4241071 35.7777778,25 C35.7777778,26.5758929 37.0732639,27.8571429 38.6666667,27.8571429 Z" id="icon-profileshare"></path>
            </g>
        </g>
    </g>
</svg>