<?xml version="1.0" encoding="UTF-8"?>
<svg width="18px" height="20px" viewBox="0 0 18 20" version="1.1" xmlns="http://www.w3.org/2000/svg" xmlns:xlink="http://www.w3.org/1999/xlink">
    <title>icon-licenseperiod</title>
    <g id="landing" stroke="none" stroke-width="1" fill="none" fill-rule="evenodd" opacity="0.65">
        <g id="continuum-home" transform="translate(-1124.000000, -5064.000000)" fill="#405ADD" fill-rule="nonzero">
            <g id="Group-11" transform="translate(461.000000, 5049.000000)">
                <g id="Group-32" transform="translate(633.000000, 0.000000)">
                    <path d="M36.7098214,27.9453125 L36.3321429,30.078125 C36.2638393,30.4648437 36.6816964,30.75 37.03125,30.5703125 L38.9959821,29.5625 L40.9607143,30.5703125 C41.3102679,30.75 41.728125,30.4609375 41.6598214,30.078125 L41.2821429,27.9453125 L42.8732143,26.4375 C43.1584821,26.1679687 43.0017857,25.6953125 42.6080357,25.6367187 L40.4102679,25.3242187 L39.4258929,23.3867187 C39.2491071,23.0429687 38.7388393,23.0351562 38.5620536,23.3867187 L37.5776786,25.3242187 L35.3799107,25.6367187 C34.9861607,25.6914062 34.8294643,26.1640625 35.1147321,26.4375 L36.7098214,27.9453125 L36.7098214,27.9453125 Z M46.0714286,17.5 L44.1428571,17.5 L44.1428571,15.625 C44.1428571,15.28125 43.8535714,15 43.5,15 L42.2142857,15 C41.8607143,15 41.5714286,15.28125 41.5714286,15.625 L41.5714286,17.5 L36.4285714,17.5 L36.4285714,15.625 C36.4285714,15.28125 36.1392857,15 35.7857143,15 L34.5,15 C34.1464286,15 33.8571429,15.28125 33.8571429,15.625 L33.8571429,17.5 L31.9285714,17.5 C30.8638393,17.5 30,18.3398438 30,19.375 L30,33.125 C30,34.1601562 30.8638393,35 31.9285714,35 L46.0714286,35 C47.1361607,35 48,34.1601562 48,33.125 L48,19.375 C48,18.3398438 47.1361607,17.5 46.0714286,17.5 Z M46.0714286,32.890625 C46.0714286,33.0195312 45.9629464,33.125 45.8303571,33.125 L32.1696429,33.125 C32.0370536,33.125 31.9285714,33.0195312 31.9285714,32.890625 L31.9285714,21.25 L46.0714286,21.25 L46.0714286,32.890625 Z" id="icon-licenseperiod"></path>
                </g>
            </g>
        </g>
    </g>
</svg>