<?xml version="1.0" encoding="UTF-8"?>
<svg width="100px" height="100px" viewBox="0 0 100 100" version="1.1" xmlns="http://www.w3.org/2000/svg" xmlns:xlink="http://www.w3.org/1999/xlink">
    <title>illo-social-twitter</title>
    <defs>
        <linearGradient x1="0%" y1="0%" x2="110.291185%" y2="100%" id="linearGradient-1">
            <stop stop-color="#405ADD" offset="0%"></stop>
            <stop stop-color="#43BFDD" offset="100%"></stop>
            <stop stop-color="#43BFDD" offset="100%"></stop>
        </linearGradient>
    </defs>
    <g id="landing" stroke="none" stroke-width="1" fill="none" fill-rule="evenodd">
        <path d="M89.2857143,0 L10.7142857,0 C4.79910714,0 0,4.79910714 0,10.7142857 L0,89.2857143 C0,95.2008929 4.79910714,100 10.7142857,100 L89.2857143,100 C95.2008929,100 100,95.2008929 100,89.2857143 L100,10.7142857 C100,4.79910714 95.2008929,0 89.2857143,0 Z M78.3705357,35.4464286 C78.4151786,36.0714286 78.4151786,36.71875 78.4151786,37.34375 C78.4151786,56.6964286 63.6830357,78.9955357 36.7633929,78.9955357 C28.4598214,78.9955357 20.7589286,76.5848214 14.2857143,72.4330357 C15.46875,72.5669643 16.6071429,72.6116071 17.8125,72.6116071 C24.6651786,72.6116071 30.9598214,70.2901786 35.9821429,66.3616071 C29.5535714,66.2276786 24.1517857,62.0089286 22.2991071,56.2053571 C24.5535714,56.5401786 26.5848214,56.5401786 28.90625,55.9375 C22.2098214,54.5758929 17.1875,48.6830357 17.1875,41.5625 L17.1875,41.3839286 C19.1294643,42.4776786 21.40625,43.1473214 23.7946429,43.2366071 C19.7161789,40.5237427 17.2687665,35.9474168 17.2767857,31.0491071 C17.2767857,28.3258929 17.9910714,25.8258929 19.2633929,23.6607143 C26.4732143,32.5446429 37.2991071,38.3482143 49.4419643,38.9732143 C47.3660714,29.0401786 54.7991071,20.9821429 63.7276786,20.9821429 C67.9464286,20.9821429 71.7410714,22.7455357 74.4196429,25.6026786 C77.7232143,24.9776786 80.8928571,23.75 83.7053571,22.0758929 C82.6116071,25.46875 80.3125,28.3258929 77.2767857,30.1339286 C80.2232143,29.8214286 83.0803571,28.9955357 85.7142857,27.8571429 C83.7276786,30.78125 81.2276786,33.3705357 78.3705357,35.4464286 L78.3705357,35.4464286 Z" id="illo-social-twitter" fill="url(#linearGradient-1)"></path>
    </g>
</svg>