<svg xmlns="http://www.w3.org/2000/svg" xmlns:xlink="http://www.w3.org/1999/xlink" width="50" height="50" version="1.1" viewBox="0 0 50 50"><title>illo-stack</title><defs><linearGradient id="linearGradient-1" x1="0%" x2="100%" y1="44.211%" y2="55.789%"><stop offset="0%" stop-color="#405ADD"/><stop offset="100%" stop-color="#43BFDD"/><stop offset="100%" stop-color="#43BFDD"/></linearGradient><linearGradient id="linearGradient-2" x1="0%" x2="110.291%" y1="0%" y2="100%"><stop offset="0%" stop-color="#405ADD"/><stop offset="100%" stop-color="#43BFDD"/><stop offset="100%" stop-color="#43BFDD"/></linearGradient></defs><g id="landing" fill="none" fill-rule="evenodd" stroke="none" stroke-width="1"><g id="continuum-home" transform="translate(-338.000000, -2446.000000)"><g id="Group-17" transform="translate(338.000000, 2376.000000)"><g id="illo-stack" transform="translate(0.000000, 70.000000)"><path id="Path" fill="url(#linearGradient-1)" d="M1.20955166,23.0321637 L6.87231969,20.4678363 L22.625731,27.6091618 C24.10329,28.2810649 25.7992441,28.2810649 27.2768031,27.6091618 L43.0311891,20.4678363 L48.6929825,23.0341131 C50.3060429,23.7651072 50.3060429,26.2017544 48.6929825,26.9327485 L25.9883041,37.2222222 C25.3291992,37.5224464 24.5723603,37.5224464 23.9132554,37.2222222 L1.20955166,26.9307992 C-0.403508772,26.1998051 -0.403508772,23.7631579 1.20955166,23.0321637 Z" opacity=".4"/><path id="Shape" fill="url(#linearGradient-2)" d="M1.20955166,14.4249513 L23.9132554,24.7270955 C24.5721642,25.0282218 25.3293952,25.0282218 25.9883041,24.7270955 L48.6920078,14.4249513 C50.3050682,13.6929825 50.3050682,11.2553606 48.6920078,10.5263158 L25.9892788,0.226120858 C25.3303699,-0.0750054418 24.5731389,-0.0750054418 23.91423,0.226120858 L1.20955166,10.5263158 C-0.403508772,11.2573099 -0.403508772,13.6959064 1.20955166,14.4249513 Z M48.6929825,35.4883041 L43.0526316,32.9317739 L27.2768031,40.082846 C25.7992441,40.7547491 24.10329,40.7547491 22.625731,40.082846 L6.85087719,32.9317739 L1.20955166,35.4883041 C-0.403508772,36.2192982 -0.403508772,38.6559454 1.20955166,39.3869396 L23.9132554,49.6783626 C24.5723603,49.9785868 25.3291992,49.9785868 25.9883041,49.6783626 L48.6978558,39.3869396 C50.3060429,38.6559454 50.3060429,36.2192982 48.6929825,35.4883041 L48.6929825,35.4883041 Z"/></g></g></g></g></svg>