<svg xmlns="http://www.w3.org/2000/svg" xmlns:xlink="http://www.w3.org/1999/xlink" width="94" height="75" version="1.1" viewBox="0 0 94 75"><title>illo-find</title><defs><linearGradient id="linearGradient-1" x1="32.207%" x2="67.866%" y1="0%" y2="100%"><stop offset="0%" stop-color="#405ADD"/><stop offset="100%" stop-color="#43BFDD"/></linearGradient><linearGradient id="linearGradient-2" x1="32.207%" x2="67.866%" y1="0%" y2="100%"><stop offset="0%" stop-color="#405ADD"/><stop offset="100%" stop-color="#43BFDD"/></linearGradient></defs><g id="landing" fill="none" fill-rule="evenodd" stroke="none" stroke-width="1"><g id="continuum-home" transform="translate(-475.000000, -1024.000000)"><g id="illo-find" transform="translate(475.000000, 1024.000000)"><path id="Path" fill="url(#linearGradient-1)" d="M44.0317383,37.7504883 C39.0364358,49.5796037 44.4827448,63.2263916 56.25,68.3657227 L56.25,71.5078125 C56.2419255,73.4422961 54.6688693,75.0048652 52.734375,75.0000113 L3.49804687,75.0000113 C2.56797525,74.9976719 1.6769221,74.6259682 1.02091043,73.9666599 C0.364898752,73.3073517 -0.00233392761,72.4144466 -1.10571518e-05,71.484375 L-1.10571518e-05,3.49804688 C0.00232808549,2.56797525 0.374031838,1.6769221 1.03334005,1.02091043 C1.69264827,0.364898752 2.58555339,-0.00233392761 3.515625,-1.10571518e-05 L37.5,-1.10571518e-05 L37.5,16.40625 C37.5,17.7006674 38.5493326,18.75 39.84375,18.75 L56.25,18.75 L56.25,25.3901367 C50.7466024,27.7963893 46.3742015,32.2196382 44.0317383,37.7504883 L44.0317383,37.7504883 Z" opacity=".4"/><path id="Shape" fill="url(#linearGradient-2)" d="M56.25,17.8564453 C56.25,16.9279242 55.8811672,16.0374287 55.2246094,15.3808594 L40.8837891,1.02539063 C40.222719,0.366606369 39.3268312,-0.00228860479 38.3935547,-1.05855127e-05 L37.5,-1.05855127e-05 L37.5,16.40625 C37.5,17.7006674 38.5493326,18.75 39.84375,18.75 L56.25,18.75 L56.25,17.8564453 Z M93.0629883,67.6845703 L81.7236328,56.3452148 C83.4432421,53.4844621 84.3592145,50.2127707 84.375,46.875 C84.375,36.5196609 75.9803391,28.125 65.625,28.125 C55.2696609,28.125 46.875,36.5196609 46.875,46.875 C46.875,57.2303391 55.2696609,65.625 65.625,65.625 C69.0966797,65.625 72.3061523,64.6171875 75.0952148,62.972168 L86.4345703,74.3129883 C86.8741241,74.7526424 87.4703472,74.999646 88.092041,74.999646 C88.7137349,74.999646 89.309958,74.7526424 89.7495117,74.3129883 L93.0629883,70.9995117 C93.5026424,70.559958 93.749646,69.9637349 93.749646,69.342041 C93.749646,68.7203472 93.5026424,68.1241241 93.0629883,67.6845703 L93.0629883,67.6845703 Z M65.625,56.25 C60.4473305,56.25 56.25,52.0526695 56.25,46.875 C56.25,41.6973305 60.4473305,37.5 65.625,37.5 C70.8026695,37.5 75,41.6973305 75,46.875 C75,52.0526695 70.8026695,56.25 65.625,56.25 Z"/></g></g></g></svg>