<?xml version="1.0" encoding="UTF-8"?>
<svg width="100px" height="100px" viewBox="0 0 100 100" version="1.1" xmlns="http://www.w3.org/2000/svg" xmlns:xlink="http://www.w3.org/1999/xlink">
    <title>illo-social-dribbble</title>
    <defs>
        <linearGradient x1="13.8359375%" y1="11.0898438%" x2="83.65625%" y2="89.7539062%" id="linearGradient-1">
            <stop stop-color="#405ADD" offset="0%"></stop>
            <stop stop-color="#43BFDD" offset="100%"></stop>
            <stop stop-color="#43BFDD" offset="100%"></stop>
        </linearGradient>
    </defs>
    <g id="landing" stroke="none" stroke-width="1" fill="none" fill-rule="evenodd">
        <path d="M50,0 C22.4298387,0 0,22.4298387 0,50 C0,77.5701613 22.4298387,100 50,100 C77.5701613,100 100,77.5701613 100,50 C100,22.4298387 77.5701613,0 50,0 Z M83.0584677,23.0576613 C89.0066532,30.325 92.6086694,39.58125 92.702621,49.6614919 C91.2945565,49.3637097 77.1747984,46.4997984 62.9643145,48.2868952 C61.8046371,45.4560484 60.7100806,42.9657258 59.2108871,39.8969758 C75.0014113,33.45 82.1580645,24.2756048 83.0584677,23.0576613 L83.0584677,23.0576613 Z M78.3106855,18.1189516 C77.5425403,19.2131048 71.1137097,27.8540323 55.9274194,33.5461694 C48.9290323,20.6881048 41.172379,10.1252016 39.9919355,8.54455645 C53.5354839,5.27983871 67.8076613,8.80060484 78.3106855,18.1189516 L78.3106855,18.1189516 Z M31.8429435,11.4153226 C32.9689516,12.9594758 40.6006048,23.5354839 47.6770161,36.1147177 C27.6997984,41.4197581 10.1044355,41.3433468 8.19435484,41.3181452 C10.9637097,28.0655242 19.8947581,17.0510081 31.8429435,11.4153226 Z M7.29233871,50.065121 C7.29233871,49.6284274 7.30100806,49.19375 7.3141129,48.7600806 C9.18266129,48.7983871 29.878629,49.065121 51.2064516,42.6822581 C52.4290323,45.075 53.5969758,47.5038306 54.6689516,49.9300403 C39.2256048,54.2798387 25.1943548,66.7701613 18.2715726,78.6207661 C11.4504032,71.0493952 7.29233871,61.0342742 7.29233871,50.065121 Z M23.7856855,83.7572581 C28.2467742,74.6377016 40.3538306,62.8657258 57.5717742,56.9919355 C63.5677419,72.5731855 66.047379,85.6316532 66.6824597,89.378629 C52.9502016,95.2280242 36.4375,93.6231855 23.7856855,83.7572581 L23.7856855,83.7572581 Z M73.8622984,85.46875 C73.4245968,82.8707661 71.1514113,70.3685484 65.5655242,55.0185484 C78.9485887,52.8762097 90.7066532,56.3830645 92.1677419,56.8441532 C90.2641129,68.7274194 83.4433468,78.990121 73.8622984,85.46875 Z" id="illo-social-dribbble" fill="url(#linearGradient-1)"></path>
    </g>
</svg>