<?xml version="1.0" encoding="UTF-8"?>
<svg width="32px" height="50px" viewBox="0 0 32 50" version="1.1" xmlns="http://www.w3.org/2000/svg" xmlns:xlink="http://www.w3.org/1999/xlink">
    <title>illo-mobile</title>
    <defs>
        <linearGradient x1="30.46875%" y1="0%" x2="69.53125%" y2="100%" id="linearGradient-1">
            <stop stop-color="#405ADD" offset="0%"></stop>
            <stop stop-color="#43BFDD" offset="100%"></stop>
            <stop stop-color="#43BFDD" offset="100%"></stop>
        </linearGradient>
        <linearGradient x1="27.7777778%" y1="0%" x2="72.2222222%" y2="100%" id="linearGradient-2">
            <stop stop-color="#405ADD" offset="0%"></stop>
            <stop stop-color="#43BFDD" offset="100%"></stop>
            <stop stop-color="#43BFDD" offset="100%"></stop>
        </linearGradient>
    </defs>
    <g id="landing" stroke="none" stroke-width="1" fill="none" fill-rule="evenodd">
        <g id="continuum-home" transform="translate(-947.000000, -3073.000000)">
            <g id="Group-20" transform="translate(338.000000, 3003.000000)">
                <g id="illo-mobile" transform="translate(609.000000, 70.000000)">
                    <path d="M26.5625,0 L4.6875,0 C2.09866524,0 0,2.09866524 0,4.6875 L0,45.3125 C0,47.9013348 2.09866524,50 4.6875,50 L26.5625,50 C29.1513348,50 31.25,47.9013348 31.25,45.3125 L31.25,4.6875 C31.25,2.09866524 29.1513348,0 26.5625,0 Z M15.625,46.875 C13.8991102,46.875 12.5,45.4758898 12.5,43.75 C12.5,42.0241102 13.8991102,40.625 15.625,40.625 C17.3508898,40.625 18.75,42.0241102 18.75,43.75 C18.75,45.4758898 17.3508898,46.875 15.625,46.875 Z M26.5625,36.328125 C26.5625,36.9753337 26.0378337,37.5 25.390625,37.5 L5.859375,37.5 C5.21216631,37.5 4.6875,36.9753337 4.6875,36.328125 L4.6875,5.859375 C4.6875,5.21216631 5.21216631,4.6875 5.859375,4.6875 L25.390625,4.6875 C26.0378337,4.6875 26.5625,5.21216631 26.5625,5.859375 L26.5625,36.328125 Z" id="Shape" fill="url(#linearGradient-1)" opacity="0.4"></path>
                    <path d="M26.5625,36.328125 C26.5625,36.9753337 26.0378337,37.5 25.390625,37.5 L5.859375,37.5 C5.21216631,37.5 4.6875,36.9753337 4.6875,36.328125 L4.6875,5.859375 C4.6875,5.21216631 5.21216631,4.6875 5.859375,4.6875 L25.390625,4.6875 C26.0378337,4.6875 26.5625,5.21216631 26.5625,5.859375 L26.5625,36.328125 Z" id="Path" fill="url(#linearGradient-2)"></path>
                </g>
            </g>
        </g>
    </g>
</svg>