<?xml version="1.0" encoding="UTF-8"?>
<svg width="34px" height="24px" viewBox="0 0 34 24" version="1.1" xmlns="http://www.w3.org/2000/svg" xmlns:xlink="http://www.w3.org/1999/xlink">
    <title>illo-s</title>
    <g id="landing" stroke="none" stroke-width="1" fill="none" fill-rule="evenodd" opacity="0.25">
        <g id="continuum-home" transform="translate(-911.000000, -4386.000000)" fill="#405ADD">
            <path d="M934.822757,4386 C940.443493,4386 945,4390.55651 945,4396.17724 L945,4401.34806 L938.352831,4401.34806 L938.353637,4397.06017 L938.353637,4396.20872 C938.353637,4394.25867 936.772808,4392.67784 934.822757,4392.67784 C933.097386,4392.67784 931.661056,4393.91537 931.352981,4395.55124 L931.354486,4399.82276 C931.354486,4405.44349 926.797979,4410 921.177243,4410 C915.556507,4410 911,4405.44349 911,4399.82276 L911,4399.82276 L911,4394.65194 L917.646583,4394.65194 L917.646363,4399.79128 C917.646363,4401.74133 919.227192,4403.32216 921.177243,4403.32216 C922.902614,4403.32216 924.338944,4402.08463 924.647019,4400.44876 L924.645514,4396.17724 C924.645514,4390.55651 929.202021,4386 934.822757,4386 Z" id="illo-s"></path>
        </g>
    </g>
</svg>