<svg xmlns="http://www.w3.org/2000/svg" xmlns:xlink="http://www.w3.org/1999/xlink" width="76" height="75" version="1.1" viewBox="0 0 76 75"><title>illo-cert</title><defs><linearGradient id="linearGradient-1" x1="32.229%" x2="67.844%" y1="0%" y2="100%"><stop offset="0%" stop-color="#405ADD"/><stop offset="100%" stop-color="#43BFDD"/></linearGradient><linearGradient id="linearGradient-2" x1="18.367%" x2="81.763%" y1=".002%" y2="99.998%"><stop offset="0%" stop-color="#405ADD"/><stop offset="100%" stop-color="#43BFDD"/></linearGradient></defs><g id="landing" fill="none" fill-rule="evenodd" stroke="none" stroke-width="1"><g id="continuum-home" transform="translate(-1294.000000, -1024.000000)"><g id="illo-cert" transform="translate(1294.000000, 1024.000000)"><path id="Path" fill="url(#linearGradient-1)" d="M75.1464844,18.75 L75.1464844,71.5019531 C75.1441563,72.4320247 74.7724525,73.3230779 74.1131443,73.9790896 C73.4538361,74.6351012 72.560931,75.0023339 71.6308594,75.0000111 L32.9589844,75.0000111 L32.9589844,61.6420898 C35.5285928,60.5449232 37.4473328,58.3223421 38.1577148,55.6201172 C38.2133789,55.4121094 38.2631836,55.2216797 38.3041992,55.0429687 C38.4008789,54.6679687 38.5092773,54.253418 38.5810547,54.0175781 C38.7480469,53.8374023 39.0380859,53.5429687 39.3017578,53.2763672 L39.7280273,52.8457031 C41.9693871,50.5515871 42.8468309,47.2518648 42.0410156,44.1474609 C41.9868164,43.940918 41.9355469,43.7504883 41.8945313,43.5732422 C41.793457,43.190918 41.6806641,42.7675781 41.625,42.5244141 C41.6806641,42.2783203 41.7949219,41.8505859 41.8974609,41.4624023 C41.9428711,41.2895508 41.9926758,41.1035156 42.0439453,40.9013672 C42.8517778,37.8056173 41.9835734,34.5127729 39.7543945,32.2177734 L39.3500977,31.8061523 C39.0791016,31.5307617 38.7788086,31.2275391 38.6103516,31.0444336 C38.5385742,30.8041992 38.4301758,30.3837891 38.3305664,30.0043945 C38.284668,29.8286133 38.2358398,29.6381836 38.184082,29.4331055 C37.3649688,26.3284081 34.959887,23.891541 31.8662109,23.0317383 L31.8500977,23.0317383 L31.3007813,22.8852539 C30.9433594,22.7885742 30.5493164,22.6816406 30.3120117,22.6098633 C30.1318359,22.4370117 29.840332,22.1396484 29.5795898,21.8701172 C29.456543,21.7441406 29.3261719,21.609375 29.1826172,21.4643555 C26.9267404,19.1474504 23.5933984,18.2332616 20.4711914,19.0751953 L20.4638672,19.0751953 L19.9116211,19.2216797 C19.5600586,19.3183594 19.1791992,19.425293 18.9316406,19.4838867 L18.9316406,3.49804688 C18.9364061,1.57495324 20.4890641,0.0144534906 22.4121094,0 L56.3964844,0 L56.3964844,16.40625 C56.3964844,17.7006674 57.445817,18.75 58.7402344,18.75 L75.1464844,18.75 Z" opacity=".4"/><path id="Shape" fill="url(#linearGradient-2)" d="M74.1210938,15.3808594 L59.7802734,1.02539063 C59.1192034,0.366606369 58.2233156,-0.00228860479 57.2900391,-1.05855127e-05 L56.3964844,-1.05855127e-05 L56.3964844,16.40625 C56.3964844,17.7006674 57.445817,18.75 58.7402344,18.75 L75.1464844,18.75 L75.1464844,17.8564453 C75.1464844,16.9279242 74.7776516,16.0374287 74.1210938,15.3808594 L74.1210938,15.3808594 Z M37.5,39.7104492 C37.8984434,38.207242 37.4766669,36.6052702 36.3896484,35.4931641 C34.2128906,33.2783203 34.4238281,33.6459961 33.6269531,30.6152344 C33.2357748,29.1227158 32.0801967,27.9509563 30.5932617,27.5390625 C27.6225586,26.7290039 27.9799805,26.9384766 25.8046875,24.7250977 C24.733496,23.6206932 23.1477326,23.1838793 21.6621094,23.5839844 C18.6855469,24.3955078 19.1044922,24.394043 16.1323242,23.5839844 C14.6488296,23.1815857 13.0637365,23.6137309 11.9897461,24.7133789 C9.80566406,26.9370117 10.1586914,26.7202148 7.20263672,27.5273437 C5.71207469,27.9402531 4.55539773,29.117595 4.16894531,30.6152344 C3.36914063,33.6533203 3.58300781,33.2709961 1.40478516,35.4887695 C0.315959308,36.6016518 -0.106460318,38.205622 0.29296875,39.7104492 C1.09130859,42.7441406 1.08691406,42.3164062 0.29296875,45.3369141 C-0.105526296,46.8396668 0.316290521,48.4412352 1.40332031,49.5527344 C3.58007813,51.7661133 3.36914063,51.3999023 4.16894531,54.4262695 C4.55558125,55.9235001 5.7122909,57.1003167 7.20263672,57.5126953 C9.29736328,58.0839844 8.89013672,57.9521484 9.52148438,58.2451172 L9.52148438,75 L18.8964844,70.3125 L28.2714844,75 L28.2714844,58.246582 C28.902832,57.9536133 28.4941406,58.0854492 30.5917969,57.5141602 C32.0814192,57.1010608 33.237377,55.9244409 33.6240234,54.4277344 C34.425293,51.3896484 34.2099609,51.7719727 36.3896484,49.5541992 C37.4766782,48.4427 37.898495,46.8411317 37.5,45.3383789 C36.7045898,42.3134766 36.703125,42.7397461 37.5,39.7104492 Z M18.8964844,51.5625 C13.7188148,51.5625 9.52148438,47.3651695 9.52148438,42.1875 C9.52148438,37.0098305 13.7188148,32.8125 18.8964844,32.8125 C24.0741539,32.8125 28.2714844,37.0098305 28.2714844,42.1875 C28.2714844,47.3651695 24.0741539,51.5625 18.8964844,51.5625 Z"/></g></g></g></svg>