<svg xmlns="http://www.w3.org/2000/svg" xmlns:xlink="http://www.w3.org/1999/xlink" width="50" height="39" version="1.1" viewBox="0 0 50 39"><title>illo-profile</title><defs><linearGradient id="linearGradient-1" x1="0%" x2="110.291%" y1="19.753%" y2="80.247%"><stop offset="0%" stop-color="#405ADD"/><stop offset="100%" stop-color="#43BFDD"/><stop offset="100%" stop-color="#43BFDD"/></linearGradient><linearGradient id="linearGradient-2" x1="11.719%" x2="96.16%" y1="0%" y2="100%"><stop offset="0%" stop-color="#405ADD"/><stop offset="100%" stop-color="#43BFDD"/><stop offset="100%" stop-color="#43BFDD"/></linearGradient></defs><g id="landing" fill="none" fill-rule="evenodd" stroke="none" stroke-width="1"><g id="continuum-home" transform="translate(-338.000000, -3702.000000)"><g id="Group-27" transform="translate(338.000000, 3632.000000)"><g id="illo-profile" transform="translate(0.000000, 70.000000)"><path id="Shape" fill="url(#linearGradient-1)" d="M45.8333333,0 L4.16666667,0 C1.86548021,0 0,1.86548021 0,4.16666667 L0,34.7222222 C0,37.0234087 1.86548021,38.8888889 4.16666667,38.8888889 L45.8333333,38.8888889 C48.1345198,38.8888889 50,37.0234087 50,34.7222222 L50,4.16666667 C50,1.86548021 48.1345198,0 45.8333333,0 Z M15.2777778,8.33333333 C18.3460264,8.33333333 20.8333333,10.8206403 20.8333333,13.8888889 C20.8333333,16.9571375 18.3460264,19.4444444 15.2777778,19.4444444 C12.2095292,19.4444444 9.72222222,16.9571375 9.72222222,13.8888889 C9.72509355,10.8218304 12.2107193,8.33620466 15.2777778,8.33333333 Z M25,28.8888889 C25,29.8090278 24.1319444,30.5555556 23.0555556,30.5555556 L7.5,30.5555556 C6.42361111,30.5555556 5.55555556,29.8090278 5.55555556,28.8888889 L5.55555556,27.2222222 C5.55555556,24.4618056 8.16840278,22.2222222 11.3888889,22.2222222 L11.8229167,22.2222222 C14.0330946,23.1481725 16.5224609,23.1481725 18.7326389,22.2222222 L19.1666667,22.2222222 C22.3871528,22.2222222 25,24.4618056 25,27.2222222 L25,28.8888889 Z M44.4444444,24.3055556 C44.4444444,24.6890866 44.1335311,25 43.75,25 L31.25,25 C30.8664689,25 30.5555556,24.6890866 30.5555556,24.3055556 L30.5555556,22.9166667 C30.5555556,22.5331356 30.8664689,22.2222222 31.25,22.2222222 L43.75,22.2222222 C44.1335311,22.2222222 44.4444444,22.5331356 44.4444444,22.9166667 L44.4444444,24.3055556 Z M44.4444444,18.75 C44.4444444,19.1335311 44.1335311,19.4444444 43.75,19.4444444 L31.25,19.4444444 C30.8664689,19.4444444 30.5555556,19.1335311 30.5555556,18.75 L30.5555556,17.3611111 C30.5555556,16.97758 30.8664689,16.6666667 31.25,16.6666667 L43.75,16.6666667 C44.1335311,16.6666667 44.4444444,16.97758 44.4444444,17.3611111 L44.4444444,18.75 Z M44.4444444,13.1944444 C44.4444444,13.5779755 44.1335311,13.8888889 43.75,13.8888889 L31.25,13.8888889 C30.8664689,13.8888889 30.5555556,13.5779755 30.5555556,13.1944444 L30.5555556,11.8055556 C30.5555556,11.4220245 30.8664689,11.1111111 31.25,11.1111111 L43.75,11.1111111 C44.1335311,11.1111111 44.4444444,11.4220245 44.4444444,11.8055556 L44.4444444,13.1944444 Z" opacity=".4"/><path id="Shape" fill="url(#linearGradient-2)" d="M15.2777778,19.4444444 C18.3460264,19.4444444 20.8333333,16.9571375 20.8333333,13.8888889 C20.8333333,10.8206403 18.3460264,8.33333333 15.2777778,8.33333333 C12.2095292,8.33333333 9.72222222,10.8206403 9.72222222,13.8888889 C9.72509355,16.9559474 12.2107193,19.4415731 15.2777778,19.4444444 Z M19.1666667,22.2222222 L18.7326389,22.2222222 C16.5224609,23.1481725 14.0330946,23.1481725 11.8229167,22.2222222 L11.3888889,22.2222222 C8.16840278,22.2222222 5.55555556,24.4618056 5.55555556,27.2222222 L5.55555556,28.8888889 C5.55555556,29.8090278 6.42361111,30.5555556 7.5,30.5555556 L23.0555556,30.5555556 C24.1319444,30.5555556 25,29.8090278 25,28.8888889 L25,27.2222222 C25,24.4618056 22.3871528,22.2222222 19.1666667,22.2222222 Z"/></g></g></g></g></svg>