<svg xmlns="http://www.w3.org/2000/svg" xmlns:xlink="http://www.w3.org/1999/xlink" width="100" height="100" version="1.1" viewBox="0 0 100 100"><title>illo-social-linkedin</title><defs><linearGradient id="linearGradient-1" x1="0%" x2="110.291%" y1="0%" y2="100%"><stop offset="0%" stop-color="#405ADD"/><stop offset="100%" stop-color="#43BFDD"/><stop offset="100%" stop-color="#43BFDD"/></linearGradient></defs><g id="landing" fill="none" fill-rule="evenodd" stroke="none" stroke-width="1"><path id="illo-social-linkedin" fill="url(#linearGradient-1)" d="M92.8571429,0 L7.12053571,0 C3.19196429,0 0,3.23660714 0,7.20982143 L0,92.7901786 C0,96.7633929 3.19196429,100 7.12053571,100 L92.8571429,100 C96.7857143,100 100,96.7633929 100,92.7901786 L100,7.20982143 C100,3.23660714 96.7857143,0 92.8571429,0 Z M30.2232143,85.7142857 L15.4017857,85.7142857 L15.4017857,37.9910714 L30.2455357,37.9910714 L30.2455357,85.7142857 L30.2232143,85.7142857 Z M22.8125,31.4732143 C18.0580357,31.4732143 14.21875,27.6116071 14.21875,22.8794643 C14.21875,18.1473214 18.0580357,14.2857143 22.8125,14.2857143 C27.5446429,14.2857143 31.40625,18.1473214 31.40625,22.8794643 C31.40625,27.6339286 27.5669643,31.4732143 22.8125,31.4732143 L22.8125,31.4732143 Z M85.78125,85.7142857 L70.9598214,85.7142857 L70.9598214,62.5 C70.9598214,56.9642857 70.8482143,49.84375 63.2589286,49.84375 C55.5357143,49.84375 54.3526786,55.8705357 54.3526786,62.0982143 L54.3526786,85.7142857 L39.53125,85.7142857 L39.53125,37.9910714 L53.75,37.9910714 L53.75,44.5089286 L53.9508929,44.5089286 C55.9375,40.7589286 60.78125,36.8080357 67.9910714,36.8080357 C82.9910714,36.8080357 85.78125,46.6964286 85.78125,59.5535714 L85.78125,85.7142857 L85.78125,85.7142857 Z"/></g></svg>