<?xml version="1.0" encoding="UTF-8"?>
<svg width="75px" height="75px" viewBox="0 0 75 75" version="1.1" xmlns="http://www.w3.org/2000/svg" xmlns:xlink="http://www.w3.org/1999/xlink">
    <title>illo-add</title>
    <defs>
        <linearGradient x1="18.3671664%" y1="35.0587305%" x2="81.7625505%" y2="64.9412695%" id="linearGradient-1">
            <stop stop-color="#405ADD" offset="0%"></stop>
            <stop stop-color="#43BFDD" offset="100%"></stop>
        </linearGradient>
        <linearGradient x1="18.3671664%" y1="0.00215459906%" x2="81.7625505%" y2="99.9978454%" id="linearGradient-2">
            <stop stop-color="#405ADD" offset="0%"></stop>
            <stop stop-color="#43BFDD" offset="100%"></stop>
        </linearGradient>
    </defs>
    <g id="landing" stroke="none" stroke-width="1" fill="none" fill-rule="evenodd">
        <g id="continuum-home" transform="translate(-889.000000, -1024.000000)">
            <g id="illo-add" transform="translate(889.000000, 1024.000000)">
                <path d="M58.59375,42.1875 C61.0444336,42.1875 63.3808594,41.7612305 65.625,41.1196289 L65.625,43.8413086 L39.0585937,55.8823242 C38.0680054,56.3335401 36.9305298,56.3335401 35.9399414,55.8823242 L1.81787109,40.4150391 C-0.606445312,39.3164062 -0.606445312,35.6542969 1.81787109,34.5556641 L33.1464844,20.3466797 C35.0507812,32.7128906 45.703125,42.1875 58.59375,42.1875 Z" id="Path" fill="url(#linearGradient-1)" opacity="0.4"></path>
                <path d="M73.1821289,53.3349609 L64.6069336,49.4487305 L40.9951172,60.1508789 C38.7744499,61.160702 36.2255501,61.160702 34.0048828,60.1508789 L10.4003906,49.4487305 L1.81787109,53.3349609 C-0.606445312,54.4335938 -0.606445312,58.0957031 1.81787109,59.1943359 L35.9399414,74.6616211 C36.9305298,75.1128369 38.0680054,75.1128369 39.0585937,74.6616211 L73.1894531,59.1943359 C75.6064453,58.0957031 75.6064453,54.4335938 73.1821289,53.3349609 Z M44.53125,21.09375 L53.90625,21.09375 L53.90625,30.46875 C53.90625,31.7631674 54.9555826,32.8125 56.25,32.8125 L60.9375,32.8125 C62.2319174,32.8125 63.28125,31.7631674 63.28125,30.46875 L63.28125,21.09375 L72.65625,21.09375 C73.9506674,21.09375 75,20.0444174 75,18.75 L75,14.0625 C75,12.7680826 73.9506674,11.71875 72.65625,11.71875 L63.28125,11.71875 L63.28125,2.34375 C63.28125,1.04933262 62.2319174,0 60.9375,0 L56.25,0 C54.9555826,0 53.90625,1.04933262 53.90625,2.34375 L53.90625,11.71875 L44.53125,11.71875 C43.2368326,11.71875 42.1875,12.7680826 42.1875,14.0625 L42.1875,18.75 C42.1875,20.0444174 43.2368326,21.09375 44.53125,21.09375 Z" id="Shape" fill="url(#linearGradient-2)"></path>
            </g>
        </g>
    </g>
</svg>