<svg xmlns="http://www.w3.org/2000/svg" xmlns:xlink="http://www.w3.org/1999/xlink" width="163" height="24" version="1.1" viewBox="0 0 163 24"><title>logo-color</title><g id="landing" fill="none" fill-rule="evenodd" stroke="none" stroke-width="1"><g id="continuum-home" transform="translate(-340.000000, -5346.000000)"><g id="logo-color" transform="translate(340.000000, 5346.000000)"><path id="Combined-Shape" fill="#405ADD" d="M23.5095136,1.42108547e-14 C29.0563429,1.42108547e-14 33.5529366,4.49659363 33.5529366,10.043423 L33.5529366,15.0706718 L26.9931702,15.0706718 L26.9939664,10.0416011 C26.9939664,8.11719089 25.4339238,6.5571482 23.5095136,6.5571482 C21.8067983,6.5571482 20.3893348,7.7784564 20.0853444,9.39285147 L20.086846,13.5228241 C20.086846,19.0696534 15.5902523,23.566247 10.043423,23.566247 C4.49659363,23.566247 1.0658141e-14,19.0696534 7.10542736e-15,13.5228241 L7.10542736e-15,13.5228241 L7.10542736e-15,8.49557522 L6.55918794,8.49557522 L6.55897011,12.7059703 L6.55897011,13.524646 C6.55897011,15.4490562 8.1190128,17.0090988 10.043423,17.0090988 C11.7459476,17.0090988 13.1632843,15.7880642 13.46749,14.1739379 L13.4660906,10.043423 C13.4660906,4.49659363 17.9626842,1.0658141e-14 23.5095136,1.42108547e-14 Z"/><path id="Combined-Shape" fill="#293340" fill-rule="nonzero" d="M49.1521808,3.52433628 C51.5865961,3.52433628 53.879523,4.45049057 55.6116809,6.07890454 L55.700773,6.16375797 L53.0462256,8.91489859 C52.0103617,7.91540411 50.6292972,7.34734513 49.1521808,7.34734513 C46.0676318,7.34734513 43.5730088,9.82296931 43.5730088,12.869469 C43.5730088,15.9159687 46.0676318,18.3915929 49.1521808,18.3915929 C50.6864944,18.3915929 52.1163746,17.7779723 53.160382,16.7106899 L53.2279195,16.640443 L56.0065938,19.2661554 C54.2415071,21.1340679 51.7810942,22.2146018 49.1521808,22.2146018 C43.9627572,22.2146018 39.75,18.0339284 39.75,12.869469 C39.75,7.70500963 43.9627572,3.52433628 49.1521808,3.52433628 Z M118.121681,8.8340708 L118.122345,15.7045924 C118.148864,17.1745368 118.968153,17.9668142 120.245575,17.9668142 C121.487823,17.9668142 122.296819,17.2175687 122.364818,15.8244787 L122.369469,15.630531 L122.369469,8.8340708 L126.192478,8.8340708 L126.191717,15.7392559 C126.141526,19.3160831 123.615138,21.789823 120.245575,21.789823 C116.919331,21.789823 114.414722,19.3792782 114.302594,15.8766553 L114.298673,15.630531 L114.298673,8.8340708 L118.121681,8.8340708 Z M132.139381,8.8340708 L132.139381,15.630531 L132.140044,15.7045924 C132.166563,17.1745368 132.985852,17.9668142 134.263274,17.9668142 C135.505522,17.9668142 136.314518,17.2175687 136.382517,15.8244787 L136.387168,15.630531 L136.387168,8.8340708 L140.210177,8.8340708 L140.209416,15.7392559 C140.159225,19.3160831 137.632837,21.789823 134.263274,21.789823 C130.93703,21.789823 128.432421,19.3792782 128.320293,15.8766553 L128.316372,15.630531 L128.316372,8.8340708 L132.139381,8.8340708 Z M63.0448673,8.10345133 C64.9648673,8.10345133 66.5662832,8.73212389 67.849115,9.98946903 C69.1319469,11.2468142 69.7733628,12.8524779 69.7733628,14.8064602 C69.7733628,16.7604425 69.1319469,18.370354 67.849115,19.6361947 C66.5662832,20.9020354 64.9648673,21.5349558 63.0448673,21.5349558 C61.1418584,21.5349558 59.5446903,20.8977876 58.2533628,19.6234513 C56.9620354,18.349115 56.3163717,16.7434513 56.3163717,14.8064602 C56.3163717,12.869469 56.9620354,11.2680531 58.2533628,10.0022124 C59.5446903,8.73637168 61.1418584,8.10345133 63.0448673,8.10345133 Z M90.2052212,4.79017699 L90.2052212,8.48575221 L92.6774336,8.48575221 L92.6774336,11.8754867 L90.2052212,11.8754867 L90.2052212,16.6160177 L90.2100717,16.7673506 C90.2618094,17.5500018 90.7274492,17.9413274 91.6069912,17.9413274 C91.8516637,17.9413274 92.118085,17.9141416 92.4062549,17.8597699 L92.6264602,17.8138938 L92.6264602,21.0252212 L92.4606391,21.1001082 C91.9991511,21.2880597 91.3832743,21.3820354 90.6130088,21.3820354 C89.3046903,21.3820354 88.2724779,21.0167257 87.5163717,20.2861062 C86.8142731,19.6076738 86.4381488,18.7021582 86.3879989,17.5695593 L86.3822124,17.3041593 L86.3822124,11.8754867 L84.1393805,11.8754867 L84.1393805,8.48575221 L84.7765487,8.48575221 L84.9859489,8.47867257 C85.5288266,8.44091445 85.9475221,8.25212389 86.2420354,7.91230088 C86.5365487,7.57247788 86.7001672,7.1420354 86.7328909,6.62097345 L86.7390265,6.42132743 L86.7390265,4.79017699 L90.2052212,4.79017699 Z M106.227876,8.19690265 C109.597439,8.19690265 112.123827,10.6706426 112.174017,14.2474698 L112.174779,21.1526549 L108.35177,21.1526549 L108.35177,14.3561947 C108.35177,12.8388182 107.526589,12.0199115 106.227876,12.0199115 C104.950453,12.0199115 104.131165,12.8121889 104.104646,14.2821333 L104.103982,21.1526549 L100.280973,21.1526549 L100.280973,14.3561947 C100.280973,10.7208695 102.824278,8.19690265 106.227876,8.19690265 Z M156.35177,8.19690265 C159.721332,8.19690265 162.24772,10.6706426 162.297911,14.2474698 L162.298673,21.1526549 L158.475664,21.1526549 L158.475664,14.3561947 C158.475664,12.8388182 157.650483,12.0199115 156.35177,12.0199115 C155.074347,12.0199115 154.255058,12.8121889 154.22854,14.2821333 L154.227876,21.1526549 L150.404867,21.1526549 L150.404867,14.3561947 C150.404867,12.8388182 149.579687,12.0199115 148.280973,12.0199115 C147.003551,12.0199115 146.184262,12.8121889 146.157743,14.2821333 L146.15708,21.1526549 L142.334071,21.1526549 L142.334071,14.3561947 C142.334071,10.7208695 144.877375,8.19690265 148.280973,8.19690265 C149.87154,8.19690265 151.274229,8.74810451 152.317279,9.70634238 C153.3589,8.74795285 154.761422,8.19690265 156.35177,8.19690265 Z M77.3429204,8.19690265 C80.7124828,8.19690265 83.2388709,10.6706426 83.2890617,14.2474698 L83.289823,21.1526549 L79.4668142,21.1526549 L79.4668142,14.3561947 C79.4668142,12.8388182 78.6416334,12.0199115 77.3429204,12.0199115 C76.0654977,12.0199115 75.2462089,12.8121889 75.2196903,14.2821333 L75.2190265,21.1526549 L71.3960177,21.1526549 L71.3960177,14.3561947 C71.3960177,10.7208695 73.9393219,8.19690265 77.3429204,8.19690265 Z M98.1570796,8.40929204 L98.1570796,21.0761947 L94.3340708,21.0761947 L94.3340708,8.40929204 L98.1570796,8.40929204 Z M63.0448673,11.6715929 C62.2632743,11.6715929 61.5921239,11.9434513 61.0314159,12.4871681 C60.470708,13.030885 60.190354,13.8039823 60.190354,14.8064602 C60.190354,15.8089381 60.470708,16.5862832 61.0314159,17.1384956 C61.5921239,17.690708 62.2632743,17.9668142 63.0448673,17.9668142 C63.8434513,17.9668142 64.5188496,17.6949558 65.0710619,17.1512389 C65.6232743,16.6075221 65.8993805,15.8259292 65.8993805,14.8064602 C65.8993805,13.7869912 65.6232743,13.009646 65.0710619,12.4744248 C64.5188496,11.9392035 63.8434513,11.6715929 63.0448673,11.6715929 Z M96.2217112,2.25 C96.810356,2.25 97.3154768,2.45682112 97.7370737,2.87046336 C98.1586706,3.2841056 98.369469,3.78524908 98.369469,4.37389381 C98.369469,4.96253853 98.1586706,5.46368201 97.7370737,5.87732425 C97.3154768,6.29096649 96.810356,6.49778761 96.2217112,6.49778761 C95.6489758,6.49778761 95.155787,6.29096649 94.7421448,5.87732425 C94.3285025,5.46368201 94.1216814,4.96253853 94.1216814,4.37389381 C94.1216814,3.78524908 94.3285025,3.2841056 94.7421448,2.87046336 C95.155787,2.45682112 95.6489758,2.25 96.2217112,2.25 Z"/></g></g></g></svg>