<?xml version="1.0" encoding="UTF-8"?>
<svg width="538px" height="34px" viewBox="0 0 538 34" version="1.1" xmlns="http://www.w3.org/2000/svg" xmlns:xlink="http://www.w3.org/1999/xlink">
    <title>logo-tag-alpha</title>
    <defs>
        <linearGradient x1="18.3671664%" y1="25.3345079%" x2="81.7625505%" y2="74.6654921%" id="linearGradient-1">
            <stop stop-color="#405ADD" offset="0%"></stop>
            <stop stop-color="#43BFDD" offset="100%"></stop>
        </linearGradient>
    </defs>
    <g id="landing" stroke="none" stroke-width="1" fill="none" fill-rule="evenodd">
        <g id="continuum-home" transform="translate(-338.000000, -60.000000)">
            <g id="logo-tag-alpha" transform="translate(338.000000, 60.000000)">
                <g id="Group-29">
                    <path d="M31.3460181,1.0658141e-14 C38.7417906,1.0658141e-14 44.7372487,5.99545818 44.7372487,13.3912306 L44.7372487,20.0942291 L35.9908936,20.0942291 L35.9919553,14.4803689 L35.9919553,13.3888014 C35.9919553,10.8229212 33.9118983,8.74286427 31.3460181,8.74286427 C29.0787104,8.74286427 27.1907409,10.3670039 26.7820626,12.5153301 L26.7824613,18.0304321 C26.7824613,25.4262045 20.7870031,31.4216627 13.3912306,31.4216627 C5.99545818,31.4216627 1.0658141e-14,25.4262045 3.55271368e-15,18.0304321 L3.55271368e-15,18.0304321 L3.55271368e-15,11.3274336 L8.74558391,11.3274336 L8.74529348,18.0328613 C8.74529348,20.5987415 10.8253504,22.6787985 13.3912306,22.6787985 C15.6582522,22.6787985 17.5460313,21.0550687 17.9550313,18.907146 L17.9547875,13.3912306 C17.9547875,5.99545818 23.9502456,7.10542736e-15 31.3460181,1.0658141e-14 Z" id="Combined-Shape" fill="url(#linearGradient-1)"></path>
                    <path d="M65.536241,4.69911504 C68.7821281,4.69911504 71.8393639,5.93398742 74.1489079,8.10520605 L74.2676974,8.21834396 L70.7283008,11.8865315 C69.347149,10.5538721 67.5057295,9.79646018 65.536241,9.79646018 C61.423509,9.79646018 58.0973451,13.0972924 58.0973451,17.159292 C58.0973451,21.2212917 61.423509,24.5221239 65.536241,24.5221239 C67.5819925,24.5221239 69.4884995,23.7039631 70.8805094,22.2809199 L70.9705593,22.1872574 L74.6754584,25.6882073 C72.3220094,28.1787573 69.041459,29.619469 65.536241,29.619469 C58.6170095,29.619469 53,24.0452379 53,17.159292 C53,10.2733462 58.6170095,4.69911504 65.536241,4.69911504 Z M157.495575,11.7787611 L157.49646,20.9394565 C157.531818,22.8993824 158.624203,23.9557522 160.327434,23.9557522 C161.997208,23.9557522 163.079898,22.940475 163.155103,21.0539051 L163.159292,20.840708 L163.159292,11.7787611 L168.256637,11.7787611 L168.256637,20.840708 L168.255622,20.9856745 C168.188701,25.7547775 164.820184,29.0530973 160.327434,29.0530973 C155.873342,29.0530973 152.524219,25.8112945 152.401705,21.1084549 L152.39823,20.840708 L152.39823,11.7787611 L157.495575,11.7787611 Z M176.185841,11.7787611 L176.185841,20.840708 L176.186726,20.9394565 C176.222084,22.8993824 177.314469,23.9557522 179.017699,23.9557522 C180.687473,23.9557522 181.770164,22.940475 181.845369,21.0539051 L181.849558,20.840708 L181.849558,11.7787611 L186.946903,11.7787611 L186.946903,20.840708 L186.945888,20.9856745 C186.878967,25.7547775 183.510449,29.0530973 179.017699,29.0530973 C174.563607,29.0530973 171.214484,25.8112945 171.09197,21.1084549 L171.088496,20.840708 L171.088496,11.7787611 L176.185841,11.7787611 Z M84.059823,10.8046018 C86.619823,10.8046018 88.7550442,11.6428319 90.4654867,13.319292 C92.1759292,14.9957522 93.0311504,17.1366372 93.0311504,19.7419469 C93.0311504,22.3472566 92.1759292,24.4938053 90.4654867,26.1815929 C88.7550442,27.8693805 86.619823,28.7132743 84.059823,28.7132743 C81.5224779,28.7132743 79.3929204,27.8637168 77.6711504,26.1646018 C75.9493805,24.4654867 75.0884956,22.3246018 75.0884956,19.7419469 C75.0884956,17.159292 75.9493805,15.0240708 77.6711504,13.3362832 C79.3929204,11.6484956 81.5224779,10.8046018 84.059823,10.8046018 Z M120.273628,6.38690265 L120.273628,11.3143363 L123.569912,11.3143363 L123.569912,15.8339823 L120.273628,15.8339823 L120.273628,22.1546903 L120.278301,22.3269805 C120.337487,23.3901735 120.958938,23.9217699 122.142655,23.9217699 C122.468885,23.9217699 122.824113,23.8855221 123.20834,23.8130265 L123.501947,23.7518584 L123.501947,28.0336283 L123.322487,28.1161969 C122.702754,28.3783193 121.867707,28.5093805 120.817345,28.5093805 C119.07292,28.5093805 117.696637,28.0223009 116.688496,27.0481416 C115.743363,26.1348673 115.241261,24.9129646 115.18219,23.3824336 L115.176283,23.0722124 L115.176283,15.8339823 L112.185841,15.8339823 L112.185841,11.3143363 L113.035398,11.3143363 L113.246254,11.3090265 C114.003382,11.2700885 114.584425,11.0169912 114.989381,10.5497345 C115.386973,10.0909735 115.60565,9.5083469 115.645409,8.80185487 L115.652035,8.56176991 L115.652035,6.38690265 L120.273628,6.38690265 Z M141.637168,10.9292035 C146.129918,10.9292035 149.498436,14.2275234 149.565357,18.9966263 L149.566372,19.1415929 L149.566372,28.2035398 L144.469027,28.2035398 L144.469027,19.1415929 C144.469027,17.1184243 143.368786,16.0265487 141.637168,16.0265487 C139.933938,16.0265487 138.841553,17.0829185 138.806195,19.0428444 L138.80531,19.1415929 L138.80531,28.2035398 L133.707965,28.2035398 L133.707965,19.1415929 C133.707965,14.2944927 137.099037,10.9292035 141.637168,10.9292035 Z M208.469027,10.9292035 C212.961777,10.9292035 216.330294,14.2275234 216.397215,18.9966263 L216.39823,19.1415929 L216.39823,28.2035398 L211.300885,28.2035398 L211.300885,19.1415929 C211.300885,17.1184243 210.200644,16.0265487 208.469027,16.0265487 C206.765796,16.0265487 205.673411,17.0829185 205.638053,19.0428444 L205.637168,19.1415929 L205.637168,28.2035398 L200.539823,28.2035398 L200.539823,19.1415929 C200.539823,17.1184243 199.439582,16.0265487 197.707965,16.0265487 C196.004734,16.0265487 194.912349,17.0829185 194.876991,19.0428444 L194.876106,28.2035398 L189.778761,28.2035398 L189.778761,19.1415929 C189.778761,14.2944927 193.169833,10.9292035 197.707965,10.9292035 C199.828214,10.9292035 201.69808,11.6637886 203.08871,12.9408752 C204.478541,11.6639342 206.348567,10.9292035 208.469027,10.9292035 Z M103.123894,10.9292035 C107.616644,10.9292035 110.985161,14.2275234 111.052082,18.9966263 L111.053097,19.1415929 L111.053097,28.2035398 L105.955752,28.2035398 L105.955752,19.1415929 C105.955752,17.1184243 104.855511,16.0265487 103.123894,16.0265487 C101.420664,16.0265487 100.328279,17.0829185 100.29292,19.0428444 L100.292035,28.2035398 L95.1946903,28.2035398 L95.1946903,19.1415929 C95.1946903,14.2944927 98.5857625,10.9292035 103.123894,10.9292035 Z M130.876106,11.2123894 L130.876106,28.1015929 L125.778761,28.1015929 L125.778761,11.2123894 L130.876106,11.2123894 Z M84.059823,15.5621239 C83.0176991,15.5621239 82.1228319,15.9246018 81.3752212,16.6495575 C80.6276106,17.3745133 80.2538053,18.4053097 80.2538053,19.7419469 C80.2538053,21.0785841 80.6276106,22.1150442 81.3752212,22.8513274 C82.1228319,23.5876106 83.0176991,23.9557522 84.059823,23.9557522 C85.1246018,23.9557522 86.0251327,23.5932743 86.7614159,22.8683186 C87.4976991,22.1433628 87.8658407,21.1012389 87.8658407,19.7419469 C87.8658407,18.3826549 87.4976991,17.3461947 86.7614159,16.6325664 C86.0251327,15.9189381 85.1246018,15.5621239 84.059823,15.5621239 Z M128.295615,3 C129.080475,3 129.753969,3.27576149 130.316098,3.82728448 C130.878227,4.37880746 131.159292,5.04699877 131.159292,5.83185841 C131.159292,6.61671804 130.878227,7.28490935 130.316098,7.83643234 C129.753969,8.38795532 129.080475,8.66371681 128.295615,8.66371681 C127.531968,8.66371681 126.874383,8.38795532 126.32286,7.83643234 C125.771337,7.28490935 125.495575,6.61671804 125.495575,5.83185841 C125.495575,5.04699877 125.771337,4.37880746 126.32286,3.82728448 C126.874383,3.27576149 127.531968,3 128.295615,3 Z" id="Combined-Shape" fill="#293340" fill-rule="nonzero"></path>
                </g>
                <path d="M240.528,28.36 C242.432,28.36 244.044,27.86 245.364,26.86 C246.684,25.86 247.576,24.536 248.04,22.888 L248.04,22.888 L245.952,22.12 C245.584,23.352 244.936,24.34 244.008,25.084 C243.08,25.828 241.92,26.2 240.528,26.2 C238.864,26.2 237.44,25.608 236.256,24.424 C235.072,23.24 234.48,21.592 234.48,19.48 C234.48,17.368 235.072,15.724 236.256,14.548 C237.44,13.372 238.864,12.784 240.528,12.784 C241.92,12.784 243.072,13.132 243.984,13.828 C244.896,14.524 245.512,15.512 245.832,16.792 L245.832,16.792 L248.016,16.024 C247.584,14.36 246.708,13.044 245.388,12.076 C244.068,11.108 242.448,10.624 240.528,10.624 C239.088,10.624 237.736,10.956 236.472,11.62 C235.208,12.284 234.16,13.304 233.328,14.68 C232.496,16.056 232.08,17.656 232.08,19.48 C232.08,22.2 232.908,24.36 234.564,25.96 C236.22,27.56 238.208,28.36 240.528,28.36 Z M254.884,28.36 C256.612,28.36 258.028,27.78 259.132,26.62 C260.236,25.46 260.788,23.992 260.788,22.216 C260.788,20.456 260.232,18.996 259.12,17.836 C258.008,16.676 256.596,16.096 254.884,16.096 C253.172,16.096 251.756,16.68 250.636,17.848 C249.532,19 248.98,20.456 248.98,22.216 C248.98,23.992 249.532,25.46 250.636,26.62 C251.74,27.78 253.156,28.36 254.884,28.36 Z M254.884,26.344 C253.876,26.344 253.02,25.984 252.316,25.264 C251.628,24.528 251.284,23.512 251.284,22.216 C251.284,20.936 251.632,19.932 252.328,19.204 C253.024,18.476 253.876,18.112 254.884,18.112 C255.892,18.112 256.744,18.476 257.44,19.204 C258.136,19.932 258.484,20.936 258.484,22.216 C258.484,23.512 258.136,24.524 257.44,25.252 C256.744,25.98 255.892,26.344 254.884,26.344 Z M265.424,28 L265.424,21.328 C265.424,20.416 265.66,19.66 266.132,19.06 C266.604,18.46 267.264,18.16 268.112,18.16 C269.904,18.16 270.8,19.128 270.8,21.064 L270.8,21.064 L270.8,28 L273.056,28 L273.056,20.68 C273.056,19.336 272.7,18.24 271.988,17.392 C271.276,16.544 270.256,16.12 268.928,16.12 C267.328,16.12 266.144,16.784 265.376,18.112 L265.376,18.112 L265.376,16.456 L263.168,16.456 L263.168,28 L265.424,28 Z M280.14,28.12 C280.78,28.12 281.292,28.048 281.676,27.904 L281.676,27.904 L281.676,25.984 C281.42,26.048 281.124,26.08 280.788,26.08 C280.212,26.08 279.8,25.952 279.552,25.696 C279.304,25.44 279.18,25.04 279.18,24.496 L279.18,24.496 L279.18,18.496 L281.676,18.496 L281.676,16.456 L279.18,16.456 L279.18,12.808 L277.116,12.808 L277.116,14.68 C277.116,15.208 276.968,15.636 276.672,15.964 C276.376,16.292 275.932,16.456 275.34,16.456 L275.34,16.456 L274.716,16.456 L274.716,18.496 L276.924,18.496 L276.924,24.832 C276.924,25.872 277.212,26.68 277.788,27.256 C278.364,27.832 279.148,28.12 280.14,28.12 Z M285.28,13.696 C285.728,13.696 286.112,13.54 286.432,13.228 C286.752,12.916 286.912,12.536 286.912,12.088 C286.912,11.624 286.752,11.236 286.432,10.924 C286.112,10.612 285.728,10.456 285.28,10.456 C284.832,10.456 284.452,10.616 284.14,10.936 C283.828,11.256 283.672,11.64 283.672,12.088 C283.672,12.536 283.824,12.92 284.128,13.24 C284.448,13.544 284.832,13.696 285.28,13.696 Z M286.408,28 L286.408,16.456 L284.176,16.456 L284.176,28 L286.408,28 Z M292.004,28 L292.004,21.328 C292.004,20.416 292.24,19.66 292.712,19.06 C293.184,18.46 293.844,18.16 294.692,18.16 C296.484,18.16 297.38,19.128 297.38,21.064 L297.38,21.064 L297.38,28 L299.636,28 L299.636,20.68 C299.636,19.336 299.28,18.24 298.568,17.392 C297.856,16.544 296.836,16.12 295.508,16.12 C293.908,16.12 292.724,16.784 291.956,18.112 L291.956,18.112 L291.956,16.456 L289.748,16.456 L289.748,28 L292.004,28 Z M306.696,28.36 C307.416,28.36 308.088,28.212 308.712,27.916 C309.336,27.62 309.8,27.184 310.104,26.608 C310.104,27.184 310.136,27.648 310.2,28 L310.2,28 L312.36,28 C312.28,27.328 312.24,26.616 312.24,25.864 L312.24,25.864 L312.24,16.456 L309.984,16.456 L309.984,23.416 C309.984,24.312 309.752,25.028 309.288,25.564 C308.824,26.1 308.144,26.368 307.248,26.368 C306.352,26.368 305.692,26.088 305.268,25.528 C304.844,24.968 304.632,24.256 304.632,23.392 L304.632,23.392 L304.632,16.456 L302.376,16.456 L302.376,23.728 C302.376,25.072 302.768,26.18 303.552,27.052 C304.336,27.924 305.384,28.36 306.696,28.36 Z M316.684,13.696 C317.132,13.696 317.516,13.54 317.836,13.228 C318.156,12.916 318.316,12.536 318.316,12.088 C318.316,11.624 318.156,11.236 317.836,10.924 C317.516,10.612 317.132,10.456 316.684,10.456 C316.236,10.456 315.856,10.616 315.544,10.936 C315.232,11.256 315.076,11.64 315.076,12.088 C315.076,12.536 315.228,12.92 315.532,13.24 C315.852,13.544 316.236,13.696 316.684,13.696 Z M317.812,28 L317.812,16.456 L315.58,16.456 L315.58,28 L317.812,28 Z M323.408,28 L323.408,21.328 C323.408,20.416 323.644,19.66 324.116,19.06 C324.588,18.46 325.248,18.16 326.096,18.16 C327.888,18.16 328.784,19.128 328.784,21.064 L328.784,21.064 L328.784,28 L331.04,28 L331.04,20.68 C331.04,19.336 330.684,18.24 329.972,17.392 C329.26,16.544 328.24,16.12 326.912,16.12 C325.312,16.12 324.128,16.784 323.36,18.112 L323.36,18.112 L323.36,16.456 L321.152,16.456 L321.152,28 L323.408,28 Z M338.628,32.92 C339.668,32.92 340.576,32.76 341.352,32.44 C342.128,32.12 342.732,31.68 343.164,31.12 C343.596,30.56 343.912,29.948 344.112,29.284 C344.312,28.62 344.412,27.904 344.412,27.136 L344.412,27.136 L344.412,16.456 L342.18,16.456 L342.18,18.064 C341.572,16.848 340.388,16.24 338.628,16.24 C337.076,16.24 335.804,16.78 334.812,17.86 C333.82,18.94 333.324,20.272 333.324,21.856 C333.324,23.488 333.824,24.828 334.824,25.876 C335.824,26.924 337.092,27.448 338.628,27.448 C339.46,27.448 340.184,27.272 340.8,26.92 C341.416,26.568 341.868,26.112 342.156,25.552 L342.156,25.552 L342.156,27.208 C342.156,29.704 340.98,30.952 338.628,30.952 C337.764,30.952 337.044,30.684 336.468,30.148 C335.892,29.612 335.564,28.936 335.484,28.12 L335.484,28.12 L333.3,28.624 C333.444,29.872 334.012,30.9 335.004,31.708 C335.996,32.516 337.204,32.92 338.628,32.92 Z M338.964,25.552 C337.94,25.552 337.128,25.22 336.528,24.556 C335.928,23.892 335.628,22.992 335.628,21.856 C335.628,20.736 335.936,19.84 336.552,19.168 C337.168,18.496 337.972,18.16 338.964,18.16 C339.94,18.16 340.732,18.5 341.34,19.18 C341.948,19.86 342.252,20.752 342.252,21.856 C342.252,22.96 341.948,23.852 341.34,24.532 C340.732,25.212 339.94,25.552 338.964,25.552 Z M363.596,28 L363.596,25.816 L355.604,25.816 L355.604,20.608 L362.852,20.608 L362.852,18.4 L355.604,18.4 L355.604,13.168 L363.596,13.168 L363.596,10.984 L353.252,10.984 L353.252,28 L363.596,28 Z M370.488,28.312 C371.336,28.312 372.068,28.116 372.684,27.724 C373.3,27.332 373.76,26.84 374.064,26.248 L374.064,26.248 L374.064,26.44 C374.064,27.032 374.104,27.552 374.184,28 L374.184,28 L376.368,28 C376.288,27.36 376.248,26.648 376.248,25.864 L376.248,25.864 L376.248,10.624 L374.016,10.624 L374.016,18.088 C373.792,17.544 373.384,17.084 372.792,16.708 C372.2,16.332 371.432,16.144 370.488,16.144 C368.888,16.144 367.576,16.732 366.552,17.908 C365.528,19.084 365.016,20.512 365.016,22.192 C365.016,23.952 365.516,25.412 366.516,26.572 C367.516,27.732 368.84,28.312 370.488,28.312 Z M370.704,26.32 C369.648,26.32 368.82,25.936 368.22,25.168 C367.62,24.4 367.32,23.408 367.32,22.192 C367.32,20.992 367.632,20.016 368.256,19.264 C368.88,18.512 369.704,18.136 370.728,18.136 C371.752,18.136 372.56,18.504 373.152,19.24 C373.744,19.976 374.04,20.944 374.04,22.144 C374.04,23.36 373.736,24.36 373.128,25.144 C372.52,25.928 371.712,26.32 370.704,26.32 Z M383.668,28.36 C384.388,28.36 385.06,28.212 385.684,27.916 C386.308,27.62 386.772,27.184 387.076,26.608 C387.076,27.184 387.108,27.648 387.172,28 L387.172,28 L389.332,28 C389.252,27.328 389.212,26.616 389.212,25.864 L389.212,25.864 L389.212,16.456 L386.956,16.456 L386.956,23.416 C386.956,24.312 386.724,25.028 386.26,25.564 C385.796,26.1 385.116,26.368 384.22,26.368 C383.324,26.368 382.664,26.088 382.24,25.528 C381.816,24.968 381.604,24.256 381.604,23.392 L381.604,23.392 L381.604,16.456 L379.348,16.456 L379.348,23.728 C379.348,25.072 379.74,26.18 380.524,27.052 C381.308,27.924 382.356,28.36 383.668,28.36 Z M397.304,28.36 C398.68,28.36 399.812,28 400.7,27.28 C401.588,26.56 402.192,25.72 402.512,24.76 L402.512,24.76 L400.52,23.896 C400.344,24.52 400.004,25.072 399.5,25.552 C398.996,26.032 398.264,26.272 397.304,26.272 C396.312,26.272 395.476,25.912 394.796,25.192 C394.116,24.472 393.776,23.48 393.776,22.216 C393.776,20.936 394.116,19.944 394.796,19.24 C395.476,18.536 396.304,18.184 397.28,18.184 C398.176,18.184 398.872,18.424 399.368,18.904 C399.864,19.384 400.2,19.96 400.376,20.632 L400.376,20.632 L402.416,19.768 C402.144,18.76 401.572,17.896 400.7,17.176 C399.828,16.456 398.688,16.096 397.28,16.096 C395.616,16.096 394.232,16.668 393.128,17.812 C392.024,18.956 391.472,20.424 391.472,22.216 C391.472,23.976 392.024,25.44 393.128,26.608 C394.232,27.776 395.624,28.36 397.304,28.36 Z M407.676,28.36 C408.604,28.36 409.376,28.168 409.992,27.784 C410.608,27.4 411.076,26.952 411.396,26.44 C411.396,27 411.436,27.52 411.516,28 L411.516,28 L413.724,28 C413.628,27.424 413.58,26.792 413.58,26.104 L413.58,26.104 L413.58,20.32 C413.58,19.088 413.188,18.076 412.404,17.284 C411.62,16.492 410.412,16.096 408.78,16.096 C407.532,16.096 406.46,16.444 405.564,17.14 C404.668,17.836 404.164,18.736 404.052,19.84 L404.052,19.84 L406.212,20.344 C406.292,19.64 406.556,19.076 407.004,18.652 C407.452,18.228 408.06,18.016 408.828,18.016 C409.66,18.016 410.284,18.208 410.7,18.592 C411.116,18.976 411.324,19.472 411.324,20.08 C411.324,20.576 411.028,20.864 410.436,20.944 L410.436,20.944 L407.316,21.4 C406.26,21.544 405.412,21.916 404.772,22.516 C404.132,23.116 403.812,23.912 403.812,24.904 C403.812,25.848 404.172,26.66 404.892,27.34 C405.612,28.02 406.54,28.36 407.676,28.36 Z M407.988,26.464 C407.428,26.464 406.976,26.296 406.632,25.96 C406.288,25.624 406.116,25.232 406.116,24.784 C406.116,24.288 406.268,23.896 406.572,23.608 C406.876,23.32 407.284,23.136 407.796,23.056 L407.796,23.056 L411.324,22.528 L411.324,23.056 C411.324,24.24 411.02,25.104 410.412,25.648 C409.804,26.192 408.996,26.464 407.988,26.464 Z M420.568,28.12 C421.208,28.12 421.72,28.048 422.104,27.904 L422.104,27.904 L422.104,25.984 C421.848,26.048 421.552,26.08 421.216,26.08 C420.64,26.08 420.228,25.952 419.98,25.696 C419.732,25.44 419.608,25.04 419.608,24.496 L419.608,24.496 L419.608,18.496 L422.104,18.496 L422.104,16.456 L419.608,16.456 L419.608,12.808 L417.544,12.808 L417.544,14.68 C417.544,15.208 417.396,15.636 417.1,15.964 C416.804,16.292 416.36,16.456 415.768,16.456 L415.768,16.456 L415.144,16.456 L415.144,18.496 L417.352,18.496 L417.352,24.832 C417.352,25.872 417.64,26.68 418.216,27.256 C418.792,27.832 419.576,28.12 420.568,28.12 Z M425.708,13.696 C426.156,13.696 426.54,13.54 426.86,13.228 C427.18,12.916 427.34,12.536 427.34,12.088 C427.34,11.624 427.18,11.236 426.86,10.924 C426.54,10.612 426.156,10.456 425.708,10.456 C425.26,10.456 424.88,10.616 424.568,10.936 C424.256,11.256 424.1,11.64 424.1,12.088 C424.1,12.536 424.252,12.92 424.556,13.24 C424.876,13.544 425.26,13.696 425.708,13.696 Z M426.836,28 L426.836,16.456 L424.604,16.456 L424.604,28 L426.836,28 Z M435.12,28.36 C436.848,28.36 438.264,27.78 439.368,26.62 C440.472,25.46 441.024,23.992 441.024,22.216 C441.024,20.456 440.468,18.996 439.356,17.836 C438.244,16.676 436.832,16.096 435.12,16.096 C433.408,16.096 431.992,16.68 430.872,17.848 C429.768,19 429.216,20.456 429.216,22.216 C429.216,23.992 429.768,25.46 430.872,26.62 C431.976,27.78 433.392,28.36 435.12,28.36 Z M435.12,26.344 C434.112,26.344 433.256,25.984 432.552,25.264 C431.864,24.528 431.52,23.512 431.52,22.216 C431.52,20.936 431.868,19.932 432.564,19.204 C433.26,18.476 434.112,18.112 435.12,18.112 C436.128,18.112 436.98,18.476 437.676,19.204 C438.372,19.932 438.72,20.936 438.72,22.216 C438.72,23.512 438.372,24.524 437.676,25.252 C436.98,25.98 436.128,26.344 435.12,26.344 Z M445.66,28 L445.66,21.328 C445.66,20.416 445.896,19.66 446.368,19.06 C446.84,18.46 447.5,18.16 448.348,18.16 C450.14,18.16 451.036,19.128 451.036,21.064 L451.036,21.064 L451.036,28 L453.292,28 L453.292,20.68 C453.292,19.336 452.936,18.24 452.224,17.392 C451.512,16.544 450.492,16.12 449.164,16.12 C447.564,16.12 446.38,16.784 445.612,18.112 L445.612,18.112 L445.612,16.456 L443.404,16.456 L443.404,28 L445.66,28 Z M468.252,28 L468.252,13.168 L473.94,13.168 L473.94,10.984 L460.212,10.984 L460.212,13.168 L465.9,13.168 L465.9,28 L468.252,28 Z M476.416,28 L476.416,22.216 C476.416,19.848 477.472,18.664 479.584,18.664 C479.904,18.664 480.232,18.688 480.568,18.736 L480.568,18.736 L480.568,16.336 C480.328,16.288 480.08,16.264 479.824,16.264 C478.224,16.264 477.072,17 476.368,18.472 L476.368,18.472 L476.368,16.456 L474.16,16.456 L474.16,28 L476.416,28 Z M485.612,28.36 C486.54,28.36 487.312,28.168 487.928,27.784 C488.544,27.4 489.012,26.952 489.332,26.44 C489.332,27 489.372,27.52 489.452,28 L489.452,28 L491.66,28 C491.564,27.424 491.516,26.792 491.516,26.104 L491.516,26.104 L491.516,20.32 C491.516,19.088 491.124,18.076 490.34,17.284 C489.556,16.492 488.348,16.096 486.716,16.096 C485.468,16.096 484.396,16.444 483.5,17.14 C482.604,17.836 482.1,18.736 481.988,19.84 L481.988,19.84 L484.148,20.344 C484.228,19.64 484.492,19.076 484.94,18.652 C485.388,18.228 485.996,18.016 486.764,18.016 C487.596,18.016 488.22,18.208 488.636,18.592 C489.052,18.976 489.26,19.472 489.26,20.08 C489.26,20.576 488.964,20.864 488.372,20.944 L488.372,20.944 L485.252,21.4 C484.196,21.544 483.348,21.916 482.708,22.516 C482.068,23.116 481.748,23.912 481.748,24.904 C481.748,25.848 482.108,26.66 482.828,27.34 C483.548,28.02 484.476,28.36 485.612,28.36 Z M485.924,26.464 C485.364,26.464 484.912,26.296 484.568,25.96 C484.224,25.624 484.052,25.232 484.052,24.784 C484.052,24.288 484.204,23.896 484.508,23.608 C484.812,23.32 485.22,23.136 485.732,23.056 L485.732,23.056 L489.26,22.528 L489.26,23.056 C489.26,24.24 488.956,25.104 488.348,25.648 C487.74,26.192 486.932,26.464 485.924,26.464 Z M499.392,28.36 C500.768,28.36 501.9,28 502.788,27.28 C503.676,26.56 504.28,25.72 504.6,24.76 L504.6,24.76 L502.608,23.896 C502.432,24.52 502.092,25.072 501.588,25.552 C501.084,26.032 500.352,26.272 499.392,26.272 C498.4,26.272 497.564,25.912 496.884,25.192 C496.204,24.472 495.864,23.48 495.864,22.216 C495.864,20.936 496.204,19.944 496.884,19.24 C497.564,18.536 498.392,18.184 499.368,18.184 C500.264,18.184 500.96,18.424 501.456,18.904 C501.952,19.384 502.288,19.96 502.464,20.632 L502.464,20.632 L504.504,19.768 C504.232,18.76 503.66,17.896 502.788,17.176 C501.916,16.456 500.776,16.096 499.368,16.096 C497.704,16.096 496.32,16.668 495.216,17.812 C494.112,18.956 493.56,20.424 493.56,22.216 C493.56,23.976 494.112,25.44 495.216,26.608 C496.32,27.776 497.712,28.36 499.392,28.36 Z M508.972,28 L508.972,24.52 L510.58,22.912 L514.348,28 L517.18,28 L512.164,21.328 L517.084,16.456 L513.964,16.456 L508.972,21.568 L508.972,10.624 L506.74,10.624 L506.74,28 L508.972,28 Z M523.112,28.36 C524.408,28.36 525.512,28.02 526.424,27.34 C527.336,26.66 527.96,25.784 528.296,24.712 L528.296,24.712 L526.352,24.04 C525.84,25.592 524.76,26.368 523.112,26.368 C522.136,26.368 521.316,26.04 520.652,25.384 C519.988,24.728 519.648,23.888 519.632,22.864 L519.632,22.864 L528.32,22.864 C528.352,22.672 528.368,22.432 528.368,22.144 C528.368,20.304 527.88,18.836 526.904,17.74 C525.928,16.644 524.568,16.096 522.824,16.096 C521.32,16.096 520.024,16.672 518.936,17.824 C517.848,18.976 517.304,20.432 517.304,22.192 C517.304,24.08 517.868,25.58 518.996,26.692 C520.124,27.804 521.496,28.36 523.112,28.36 Z M526.016,21.04 L519.704,21.04 C519.752,20.24 520.064,19.548 520.64,18.964 C521.216,18.38 521.952,18.088 522.848,18.088 C523.84,18.088 524.608,18.364 525.152,18.916 C525.696,19.468 525.984,20.176 526.016,21.04 L526.016,21.04 Z M533.004,28 L533.004,22.216 C533.004,19.848 534.06,18.664 536.172,18.664 C536.492,18.664 536.82,18.688 537.156,18.736 L537.156,18.736 L537.156,16.336 C536.916,16.288 536.668,16.264 536.412,16.264 C534.812,16.264 533.66,17 532.956,18.472 L532.956,18.472 L532.956,16.456 L530.748,16.456 L530.748,28 L533.004,28 Z" id="ContinuingEducationTracker" fill="#747B83" fill-rule="nonzero" opacity="0.5"></path>
            </g>
        </g>
    </g>
</svg>