<svg xmlns="http://www.w3.org/2000/svg" xmlns:xlink="http://www.w3.org/1999/xlink" width="16" height="16" version="1.1" viewBox="0 0 16 16"><title>social-instagram</title><g id="landing" fill="none" fill-rule="evenodd" stroke="none" stroke-width="1"><g id="continuum-home" fill="#BFC2C6" fill-rule="nonzero" transform="translate(-416.000000, -5458.000000)"><g id="social-instagram" transform="translate(416.000000, 5458.000000)"><path id="Shape" d="M8.00178472,3.89780208 C5.73162298,3.89780208 3.90050195,5.7293317 3.90050195,8 C3.90050195,10.2706683 5.73162298,12.1021979 8.00178472,12.1021979 C10.2719465,12.1021979 12.1030675,10.2706683 12.1030675,8 C12.1030675,5.7293317 10.2719465,3.89780208 8.00178472,3.89780208 Z M8.00178472,10.6669642 C6.53474624,10.6669642 5.3354155,9.47093607 5.3354155,8 C5.3354155,6.52906393 6.5311768,5.33303581 8.00178472,5.33303581 C9.47239264,5.33303581 10.6681539,6.52906393 10.6681539,8 C10.6681539,9.47093607 9.4688232,10.6669642 8.00178472,10.6669642 L8.00178472,10.6669642 Z M13.22744,3.73000112 C13.22744,4.26196586 12.7991076,4.68682361 12.270831,4.68682361 C11.7389849,4.68682361 11.314222,4.25839563 11.314222,3.73000112 C11.314222,3.2016066 11.7425544,2.77317862 12.270831,2.77317862 C12.7991076,2.77317862 13.22744,3.2016066 13.22744,3.73000112 Z M15.9437814,4.70110454 C15.8831009,3.41939083 15.5904071,2.28405668 14.6516453,1.34865558 C13.7164529,0.413254491 12.581372,0.12049537 11.2999442,0.0562311726 C9.97925265,-0.0187437242 6.02074735,-0.0187437242 4.70005577,0.0562311726 C3.42219743,0.116925137 2.28711656,0.409684258 1.34835471,1.34508535 C0.409592861,2.28048644 0.120468489,3.4158206 0.056218628,4.69753431 C-0.0187395427,6.01852058 -0.0187395427,9.97790918 0.056218628,11.2988955 C0.116899052,12.5806092 0.409592861,13.7159433 1.34835471,14.6513444 C2.28711656,15.5867455 3.418628,15.8795046 4.70005577,15.9437688 C6.02074735,16.0187437 9.97925265,16.0187437 11.2999442,15.9437688 C12.581372,15.8830749 13.7164529,15.5903157 14.6516453,14.6513444 C15.5868377,13.7159433 15.8795315,12.5806092 15.9437814,11.2988955 C16.0187395,9.97790918 16.0187395,6.02209082 15.9437814,4.70110454 Z M14.2375906,12.716278 C13.9591746,13.4160437 13.4201896,13.9551489 12.7170106,14.2371974 C11.6640268,14.6549146 9.16542108,14.5585184 8.00178472,14.5585184 C6.83814835,14.5585184 4.33597323,14.6513444 3.28655884,14.2371974 C2.58694925,13.9587192 2.04796431,13.419614 1.76597881,12.716278 C1.34835471,11.6630592 1.4447295,9.16389602 1.4447295,8 C1.4447295,6.83610398 1.35192415,4.33337052 1.76597881,3.28372197 C2.04439487,2.58395626 2.58337981,2.04485105 3.28655884,1.76280263 C4.33954267,1.34508535 6.83814835,1.44148165 8.00178472,1.44148165 C9.16542108,1.44148165 11.6675962,1.34865558 12.7170106,1.76280263 C13.4166202,2.04128082 13.9556051,2.58038603 14.2375906,3.28372197 C14.6552147,4.33694076 14.5588399,6.83610398 14.5588399,8 C14.5588399,9.16389602 14.6552147,11.6666295 14.2375906,12.716278 Z"/></g></g></g></svg>