<?xml version="1.0" encoding="UTF-8"?>
<svg width="16px" height="16px" viewBox="0 0 16 16" version="1.1" xmlns="http://www.w3.org/2000/svg" xmlns:xlink="http://www.w3.org/1999/xlink">
    <title>social-linkedin</title>
    <g id="landing" stroke="none" stroke-width="1" fill="none" fill-rule="evenodd">
        <g id="continuum-home" transform="translate(-380.000000, -5458.000000)" fill="#BFC2C6" fill-rule="nonzero">
            <g id="social-linkedin" transform="translate(380.000000, 5458.000000)">
                <path d="M3.58142857,16 L0.264285714,16 L0.264285714,5.31785714 L3.58142857,5.31785714 L3.58142857,16 Z M1.92107143,3.86071429 C0.860357143,3.86071429 0,2.98214286 0,1.92142857 C0,0.860450129 0.860092986,0.000357171483 1.92107143,0.000357171483 C2.98204987,0.000357171483 3.84214286,0.860450129 3.84214286,1.92142857 C3.84214286,2.98214286 2.98142857,3.86071429 1.92107143,3.86071429 Z M15.9964286,16 L12.6864286,16 L12.6864286,10.8 C12.6864286,9.56071429 12.6614286,7.97142857 10.9617857,7.97142857 C9.23714286,7.97142857 8.97285714,9.31785714 8.97285714,10.7107143 L8.97285714,16 L5.65928571,16 L5.65928571,5.31785714 L8.84071429,5.31785714 L8.84071429,6.775 L8.88714286,6.775 C9.33,5.93571429 10.4117857,5.05 12.0257143,5.05 C15.3828571,5.05 16,7.26071429 16,10.1321429 L16,16 L15.9964286,16 Z" id="Shape"></path>
            </g>
        </g>
    </g>
</svg>