<?xml version="1.0" encoding="UTF-8"?>
<svg width="20px" height="16px" viewBox="0 0 20 16" version="1.1" xmlns="http://www.w3.org/2000/svg" xmlns:xlink="http://www.w3.org/1999/xlink">
    <title>social-twitter</title>
    <g id="landing" stroke="none" stroke-width="1" fill="none" fill-rule="evenodd">
        <g id="continuum-home" transform="translate(-340.000000, -5458.000000)" fill="#BFC2C6" fill-rule="nonzero">
            <g id="social-twitter" transform="translate(340.000000, 5458.000000)">
                <path d="M17.6680769,3.98907692 C17.6805769,4.164 17.6805769,4.33896154 17.6805769,4.51388462 C17.6805769,9.84926923 13.6196923,15.9968846 6.19757692,15.9968846 C3.91096154,15.9968846 1.78680769,15.3346154 0,14.1851154 C0.324884615,14.2225769 0.637230769,14.2350769 0.974615385,14.2350769 C2.86134615,14.2350769 4.59819231,13.5978462 5.98515385,12.5107692 C4.21084615,12.4732692 2.72392308,11.3112308 2.21161538,9.71184615 C2.46153846,9.74930769 2.71142308,9.77430769 2.97384615,9.77430769 C3.33619231,9.77430769 3.69857692,9.72430769 4.03592308,9.63688462 C2.18665385,9.262 0.799653846,7.63765385 0.799653846,5.67592308 L0.799653846,5.62596154 C1.33692308,5.92584615 1.96173077,6.11326923 2.62392308,6.13823077 C1.53684615,5.4135 0.824653846,4.1765 0.824653846,2.77703846 C0.824653846,2.02734615 1.02453846,1.34011538 1.37442308,0.740346154 C3.36115385,3.18938462 6.3475,4.78873077 9.69615385,4.96369231 C9.63369231,4.66380769 9.59619231,4.35146154 9.59619231,4.03907692 C9.59619231,1.81492308 11.3955,0.00315384615 13.6321154,0.00315384615 C14.7941538,0.00315384615 15.8437308,0.490461538 16.5809615,1.27765385 C17.4930769,1.10273077 18.3677308,0.765346154 19.1424615,0.303038462 C18.8425385,1.24019231 18.2053077,2.02738462 17.3681538,2.52715385 C18.1803462,2.43973077 18.9675385,2.21476923 19.6922308,1.90242308 C19.1425385,2.70207692 18.4552692,3.41426923 17.6680769,3.98907692 Z" id="Path"></path>
            </g>
        </g>
    </g>
</svg>